<svg width="110" height="110" viewBox="0 0 110 110" fill="none" xmlns="http://www.w3.org/2000/svg">
<rect width="110" height="110" rx="55" fill="#FFCB33" fill-opacity="0.4"/>
<mask id="mask0_111_4322" style="mask-type:alpha" maskUnits="userSpaceOnUse" x="0" y="0" width="110" height="110">
<rect width="110" height="110" rx="55" fill="#0D111A"/>
</mask>
<g mask="url(#mask0_111_4322)">
<path d="M54.5 11C61.9924 11 69.1779 13.9763 74.4758 19.2742C79.7737 24.5721 82.75 31.7576 82.75 39.25C82.75 46.7424 79.7737 53.9279 74.4758 59.2258C69.1779 64.5237 61.9924 67.5 54.5 67.5C47.0076 67.5 39.8221 64.5237 34.5242 59.2258C29.2263 53.9279 26.25 46.7424 26.25 39.25C26.25 31.7576 29.2263 24.5721 34.5242 19.2742C39.8221 13.9763 47.0076 11 54.5 11ZM54.5 25.125C50.7538 25.125 47.1611 26.6132 44.5121 29.2621C41.8632 31.9111 40.375 35.5038 40.375 39.25C40.375 42.9962 41.8632 46.5889 44.5121 49.2379C47.1611 51.8868 50.7538 53.375 54.5 53.375C58.2462 53.375 61.8389 51.8868 64.4879 49.2379C67.1368 46.5889 68.625 42.9962 68.625 39.25C68.625 35.5038 67.1368 31.9111 64.4879 29.2621C61.8389 26.6132 58.2462 25.125 54.5 25.125ZM54.5 74.5625C73.3569 74.5625 111 83.9556 111 102.812V124H-2V102.812C-2 83.9556 35.6431 74.5625 54.5 74.5625ZM54.5 87.9812C33.5244 87.9812 11.4188 98.2925 11.4188 102.812V110.581H97.5813V102.812C97.5813 98.2925 75.4756 87.9812 54.5 87.9812Z" fill="black"/>
</g>
</svg>
