<svg width="29" height="30" viewBox="0 0 29 30" fill="none" xmlns="http://www.w3.org/2000/svg">
<path d="M3.72126 10.5066V4.07895C3.72126 3.94326 3.80959 3.84444 3.91347 3.81693C4.27819 4.27872 4.83941 4.57895 5.47386 4.57895C6.59104 4.57895 7.4756 3.65407 7.4756 2.53947C7.4756 1.42488 6.59104 0.5 5.47386 0.5C4.83553 0.5 4.27133 0.803913 3.90679 1.27051C2.40572 1.30599 1.21952 2.56119 1.21952 4.07895V10.6129C0.77062 10.8127 0.456291 11.2737 0.504818 11.8196C0.68941 13.8961 1.57699 15.8533 3.03002 17.3429L3.38793 16.9937L3.03003 17.3429C4.00533 18.3427 5.18801 19.0831 6.47569 19.5194V21.0132C6.47569 22.1055 7.08785 23.0582 7.98962 23.5224C8.18715 26.6875 10.7568 29.2105 13.9212 29.2105C17.2155 29.2105 19.865 26.4764 19.865 23.1299V20.051C19.865 18.7212 20.9134 17.6645 22.1808 17.6645C23.4481 17.6645 24.4965 18.7212 24.4965 20.051V21.5891C23.6014 22.0557 22.9948 23.0048 22.9948 24.0921C22.9948 25.6318 24.2155 26.9013 25.7474 26.9013C27.2793 26.9013 28.5 25.6318 28.5 24.0921C28.5 23.0048 27.8934 22.0557 26.9983 21.5891V20.051C26.9983 17.3422 24.853 15.125 22.1808 15.125C19.5085 15.125 17.3633 17.3422 17.3633 20.051V23.1299C17.3633 25.0974 15.8106 26.6711 13.9212 26.6711C12.1539 26.6711 10.6813 25.2942 10.4983 23.5061C11.3829 23.036 11.9809 22.0928 11.9809 21.0132V19.5194C13.2686 19.0831 14.4513 18.3427 15.4266 17.3429C16.8796 15.8533 17.7672 13.8961 17.9518 11.8197C18.0004 11.2736 17.6859 10.8127 17.237 10.6129V4.07895C17.237 2.5612 16.0508 1.30599 14.5497 1.27051C14.1852 0.803913 13.621 0.5 12.9826 0.5C11.8655 0.5 10.9809 1.42488 10.9809 2.53947C10.9809 3.65407 11.8655 4.57895 12.9826 4.57895C13.6171 4.57895 14.1783 4.27872 14.543 3.81693C14.6469 3.84444 14.7352 3.94325 14.7352 4.07895V10.5066H14.3642C13.6472 10.5066 13.1569 11.0922 13.0561 11.6895C12.9195 12.4989 12.5427 13.25 11.971 13.836L11.971 13.836C11.2415 14.5839 10.2546 15.0018 9.22829 15.0018C8.20202 15.0018 7.21517 14.5839 6.48557 13.836C5.91397 13.25 5.53704 12.4989 5.40046 11.6895C5.29973 11.0922 4.80941 10.5066 4.0925 10.5066H3.72126ZM25.7474 23.8224C25.8743 23.8224 25.9983 23.9313 25.9983 24.0921C25.9983 24.2529 25.8743 24.3618 25.7474 24.3618C25.6205 24.3618 25.4965 24.2529 25.4965 24.0921C25.4965 23.9314 25.6205 23.8224 25.7474 23.8224ZM9.47916 19.9737V21.0132C9.47916 21.1739 9.35523 21.2829 9.22829 21.2829C9.10136 21.2829 8.97743 21.1739 8.97743 21.0132V19.9737H9.47916Z" fill="black" stroke="black"/>
</svg>
