<svg width="74" height="74" viewBox="0 0 74 74" fill="none" xmlns="http://www.w3.org/2000/svg">
<circle cx="37.4259" cy="36.5948" r="36.513" fill="#BF83FF"/>
<path d="M37.426 17.8138C35.7659 17.8138 34.1738 18.4733 32.9999 19.6472C31.8261 20.821 31.1666 22.4131 31.1666 24.0732C31.1666 25.7333 31.8261 27.3254 32.9999 28.4992C34.1738 29.6731 35.7659 30.3326 37.426 30.3326C39.0861 30.3326 40.6782 29.6731 41.852 28.4992C43.0259 27.3254 43.6853 25.7333 43.6853 24.0732C43.6853 22.4131 43.0259 20.821 41.852 19.6472C40.6782 18.4733 39.0861 17.8138 37.426 17.8138ZM34.2963 24.0732C34.2963 23.2432 34.626 22.4471 35.2129 21.8602C35.7999 21.2732 36.5959 20.9435 37.426 20.9435C38.256 20.9435 39.0521 21.2732 39.639 21.8602C40.2259 22.4471 40.5557 23.2432 40.5557 24.0732C40.5557 24.9032 40.2259 25.6993 39.639 26.2862C39.0521 26.8732 38.256 27.2029 37.426 27.2029C36.5959 27.2029 35.7999 26.8732 35.2129 26.2862C34.626 25.6993 34.2963 24.9032 34.2963 24.0732ZM26.4721 50.6756C26.057 50.6756 25.659 50.8404 25.3655 51.1339C25.0721 51.4274 24.9072 51.8254 24.9072 52.2404C24.9072 52.6554 25.0721 53.0534 25.3655 53.3469C25.659 53.6404 26.057 53.8052 26.4721 53.8052H48.3799C48.7949 53.8052 49.1929 53.6404 49.4864 53.3469C49.7799 53.0534 49.9447 52.6554 49.9447 52.2404C49.9447 51.8254 49.7799 51.4274 49.4864 51.1339C49.1929 50.8404 48.7949 50.6756 48.3799 50.6756H26.4721ZM18.6478 17.8138C18.6478 16.1537 19.3073 14.5616 20.4812 13.3878C21.655 12.2139 23.2471 11.5544 24.9072 11.5544H49.9447C51.6048 11.5544 53.1969 12.2139 54.3708 13.3878C55.5446 14.5616 56.2041 16.1537 56.2041 17.8138V55.3701C56.2041 57.0302 55.5446 58.6223 54.3708 59.7961C53.1969 60.97 51.6048 61.6295 49.9447 61.6295H24.9072C23.2471 61.6295 21.655 60.97 20.4812 59.7961C19.3073 58.6223 18.6478 57.0302 18.6478 55.3701V17.8138ZM49.9447 14.6841H24.9072C24.0772 14.6841 23.2811 15.0139 22.6942 15.6008C22.1073 16.1877 21.7775 16.9838 21.7775 17.8138V42.8513H28.0369V36.592C28.0369 35.7619 28.3666 34.9659 28.9536 34.3789C29.5405 33.792 30.3365 33.4623 31.1666 33.4623H43.6853C44.5154 33.4623 45.3114 33.792 45.8984 34.3789C46.4853 34.9659 46.815 35.7619 46.815 36.592V42.8513H53.0744V17.8138C53.0744 16.9838 52.7447 16.1877 52.1577 15.6008C51.5708 15.0139 50.7748 14.6841 49.9447 14.6841ZM43.6853 36.592H31.1666V42.8513H43.6853V36.592ZM21.7775 45.981V55.3701C21.7775 56.2001 22.1073 56.9962 22.6942 57.5831C23.2811 58.17 24.0772 58.4998 24.9072 58.4998H49.9447C50.7748 58.4998 51.5708 58.17 52.1577 57.5831C52.7447 56.9962 53.0744 56.2001 53.0744 55.3701V45.981H21.7775Z" fill="white"/>
</svg>
