<svg width="74" height="74" viewBox="0 0 74 74" fill="none" xmlns="http://www.w3.org/2000/svg">
<circle cx="37.4264" cy="36.5948" r="36.513" fill="#5A7DFA"/>
<path d="M58.8957 12.6934H47.1851C46.6674 12.6934 46.171 12.899 45.805 13.265C45.4389 13.631 45.2333 14.1275 45.2333 14.6451C45.2333 15.1628 45.4389 15.6592 45.805 16.0252C46.171 16.3913 46.6674 16.5969 47.1851 16.5969H54.1846L43.9207 26.8607C40.0438 23.6917 35.0972 22.134 30.104 22.5097C25.1108 22.8854 20.453 25.1658 17.094 28.8793C13.7349 32.5927 11.9316 37.4551 12.0569 42.4609C12.1822 47.4666 14.2267 52.2327 17.7674 55.7734C21.3081 59.3141 26.0742 61.3586 31.0799 61.4839C36.0856 61.6092 40.9481 59.8059 44.6615 56.4468C48.375 53.0877 50.6554 48.4299 51.0311 43.4368C51.4068 38.4436 49.8491 33.497 46.68 29.6201L56.9439 19.3586V26.3557C56.9439 26.8734 57.1495 27.3698 57.5156 27.7358C57.8816 28.1019 58.378 28.3075 58.8957 28.3075C59.4133 28.3075 59.9098 28.1019 60.2758 27.7358C60.6418 27.3698 60.8474 26.8734 60.8474 26.3557V14.6451C60.8474 14.1275 60.6418 13.631 60.2758 13.265C59.9098 12.899 59.4133 12.6934 58.8957 12.6934ZM42.6082 53.0193C40.4242 55.2023 37.642 56.6887 34.6134 57.2906C31.5847 57.8925 28.4456 57.5829 25.5929 56.4009C22.7402 55.2189 20.302 53.2176 18.5866 50.65C16.8712 48.0824 15.9557 45.0638 15.9557 41.976C15.9557 38.8881 16.8712 35.8695 18.5866 33.3019C20.302 30.7344 22.7402 28.7331 25.5929 27.5511C28.4456 26.369 31.5847 26.0594 34.6134 26.6613C37.642 27.2632 40.4242 28.7496 42.6082 30.9326C45.5319 33.8642 47.1738 37.8356 47.1738 41.976C47.1738 46.1163 45.5319 50.0877 42.6082 53.0193Z" fill="white"/>
</svg>
