<svg width="74" height="74" viewBox="0 0 74 74" fill="none" xmlns="http://www.w3.org/2000/svg">
<circle cx="37.4264" cy="36.7911" r="36.513" fill="#FF947A"/>
<path d="M37.4263 8.98096C32.022 8.98096 26.739 10.5835 22.2455 13.586C17.752 16.5885 14.2497 20.856 12.1815 25.849C10.1134 30.8419 9.57228 36.336 10.6266 41.6365C11.6809 46.9369 14.2834 51.8057 18.1048 55.6272C21.9262 59.4486 26.795 62.051 32.0955 63.1054C37.396 64.1597 42.8901 63.6186 47.883 61.5504C52.876 59.4823 57.1435 55.98 60.146 51.4865C63.1485 46.993 64.751 41.71 64.751 36.3057C64.751 29.0587 61.8722 22.1086 56.7478 16.9842C51.6234 11.8598 44.6733 8.98096 37.4263 8.98096ZM37.4263 59.7269C32.794 59.7269 28.2658 58.3532 24.4142 55.7797C20.5626 53.2061 17.5606 49.5482 15.7879 45.2686C14.0152 40.9889 13.5514 36.2797 14.4551 31.7364C15.3589 27.1932 17.5895 23.0199 20.865 19.7444C24.1405 16.4689 28.3138 14.2382 32.8571 13.3345C37.4003 12.4308 42.1095 12.8946 46.3892 14.6673C50.6689 16.44 54.3268 19.442 56.9003 23.2936C59.4739 27.1452 60.8475 31.6734 60.8475 36.3057C60.8475 42.5174 58.3799 48.4746 53.9876 52.867C49.5953 57.2593 43.638 59.7269 37.4263 59.7269Z" fill="white"/>
<path d="M35.4745 20.6914H39.3781V42.1608H35.4745V20.6914ZM37.4263 48.0161C36.8473 48.0161 36.2812 48.1878 35.7998 48.5095C35.3183 48.8312 34.9431 49.2885 34.7215 49.8234C34.4999 50.3584 34.4419 50.947 34.5549 51.5149C34.6679 52.0829 34.9467 52.6045 35.3561 53.014C35.7656 53.4234 36.2872 53.7022 36.8552 53.8152C37.4231 53.9282 38.0117 53.8702 38.5467 53.6486C39.0816 53.427 39.5389 53.0518 39.8606 52.5703C40.1823 52.0889 40.354 51.5228 40.354 50.9438C40.354 50.1673 40.0455 49.4227 39.4965 48.8736C38.9474 48.3246 38.2028 48.0161 37.4263 48.0161Z" fill="white"/>
</svg>
