<svg width="74" height="74" viewBox="0 0 74 74" fill="none" xmlns="http://www.w3.org/2000/svg">
<circle cx="37.4259" cy="36.7911" r="36.513" fill="#3CD856"/>
<path d="M49.1013 43.4747C46.6439 47.7257 42.5639 50.1633 37.9067 50.1633C33.2495 50.1633 29.1694 47.7257 26.712 43.4747C26.5343 43.135 26.4947 42.7398 26.6016 42.3716C26.7084 42.0035 26.9533 41.6908 27.2852 41.4989C27.6171 41.3071 28.0103 41.2509 28.3827 41.3421C28.755 41.4333 29.0777 41.6649 29.2834 41.9884C31.2256 45.3426 34.2874 47.1906 37.9067 47.1906C41.5259 47.1906 44.5952 45.3426 46.53 41.9884C46.6229 41.8108 46.7508 41.6538 46.9059 41.5268C47.0611 41.3999 47.2403 41.3057 47.4328 41.2499C47.6254 41.194 47.8272 41.1777 48.0262 41.2018C48.2252 41.226 48.4173 41.2902 48.5908 41.3905C48.7644 41.4908 48.9158 41.6252 49.0361 41.7856C49.1564 41.946 49.243 42.129 49.2906 42.3237C49.3383 42.5184 49.3461 42.7208 49.3136 42.9186C49.2811 43.1164 49.2089 43.3056 49.1013 43.4747ZM63.1745 36.7862C63.1745 41.7837 61.6926 46.669 58.9161 50.8243C56.1397 54.9795 52.1934 58.2182 47.5763 60.1306C42.9592 62.0431 37.8786 62.5435 32.9772 61.5685C28.0757 60.5936 23.5734 58.187 20.0396 54.6533C16.5058 51.1195 14.0993 46.6172 13.1243 41.7157C12.1494 36.8142 12.6497 31.7337 14.5622 27.1166C16.4747 22.4995 19.7133 18.5532 23.8686 15.7767C28.0239 13.0002 32.9092 11.5183 37.9067 11.5183C44.6057 11.5262 51.0281 14.1908 55.7651 18.9278C60.502 23.6647 63.1667 30.0871 63.1745 36.7862ZM60.2019 36.7862C60.2019 32.3766 58.8943 28.0661 56.4444 24.3996C53.9946 20.7332 50.5126 17.8756 46.4387 16.1881C42.3648 14.5007 37.8819 14.0591 33.5571 14.9194C29.2323 15.7797 25.2596 17.9031 22.1416 21.0211C19.0236 24.1391 16.9002 28.1118 16.0399 32.4366C15.1796 36.7614 15.6211 41.2443 17.3086 45.3182C18.9961 49.3921 21.8537 52.8741 25.5201 55.3239C29.1866 57.7738 33.4971 59.0814 37.9067 59.0814C43.8177 59.0748 49.4848 56.7237 53.6645 52.544C57.8442 48.3643 60.1953 42.6972 60.2019 36.7862ZM28.9886 34.3089C29.4786 34.3089 29.9575 34.1636 30.3649 33.8914C30.7723 33.6192 31.0898 33.2324 31.2773 32.7797C31.4648 32.327 31.5138 31.8289 31.4182 31.3484C31.3227 30.8679 31.0867 30.4265 30.7403 30.08C30.3938 29.7336 29.9524 29.4976 29.4719 29.4021C28.9914 29.3065 28.4933 29.3555 28.0406 29.543C27.5879 29.7305 27.2011 30.048 26.9289 30.4554C26.6566 30.8628 26.5114 31.3417 26.5114 31.8317C26.5114 32.4887 26.7724 33.1188 27.2369 33.5834C27.7015 34.0479 28.3316 34.3089 28.9886 34.3089ZM46.8247 29.3545C46.3348 29.3545 45.8558 29.4997 45.4485 29.7719C45.0411 30.0441 44.7236 30.431 44.5361 30.8837C44.3486 31.3364 44.2995 31.8344 44.3951 32.315C44.4907 32.7955 44.7266 33.2369 45.0731 33.5834C45.4195 33.9298 45.8609 34.1658 46.3415 34.2613C46.822 34.3569 47.3201 34.3079 47.7727 34.1204C48.2254 33.9329 48.6123 33.6154 48.8845 33.208C49.1567 32.8006 49.302 32.3216 49.302 31.8317C49.302 31.1747 49.041 30.5446 48.5764 30.08C48.1118 29.6154 47.4818 29.3545 46.8247 29.3545Z" fill="white"/>
</svg>
