<svg width="74" height="74" viewBox="0 0 74 74" fill="none" xmlns="http://www.w3.org/2000/svg">
<circle cx="37.4264" cy="36.5948" r="36.513" fill="#F75AFA"/>
<path d="M56.9439 28.3075C56.9439 24.5305 55.8479 20.8346 53.789 17.6681C51.73 14.5017 48.7965 12.0006 45.3443 10.4683C41.8921 8.93606 38.0694 8.43836 34.3399 9.03561C30.6105 9.63286 27.1344 11.2994 24.3333 13.8331C21.5322 16.3668 19.5265 19.6588 18.5593 23.3099C17.5921 26.961 17.7051 30.8143 18.8846 34.4024C20.064 37.9905 22.2592 41.1594 25.2039 43.5246C28.1486 45.8899 31.7164 47.3499 35.4745 47.7276V53.6804H27.6674C27.1498 53.6804 26.6533 53.8861 26.2873 54.2521C25.9213 54.6181 25.7156 55.1146 25.7156 55.6322C25.7156 56.1499 25.9213 56.6463 26.2873 57.0123C26.6533 57.3783 27.1498 57.584 27.6674 57.584H35.4745V63.4393C35.4745 63.9569 35.6801 64.4534 36.0461 64.8194C36.4122 65.1854 36.9086 65.391 37.4262 65.391C37.9439 65.391 38.4403 65.1854 38.8063 64.8194C39.1724 64.4534 39.378 63.9569 39.378 63.4393V57.584H47.1851C47.7027 57.584 48.1992 57.3783 48.5652 57.0123C48.9312 56.6463 49.1368 56.1499 49.1368 55.6322C49.1368 55.1146 48.9312 54.6181 48.5652 54.2521C48.1992 53.8861 47.7027 53.6804 47.1851 53.6804H39.378V47.7276C44.19 47.2379 48.6495 44.9813 51.8941 41.3942C55.1387 37.8071 56.938 33.1443 56.9439 28.3075ZM21.8121 28.3075C21.8121 25.2193 22.7279 22.2005 24.4436 19.6327C26.1593 17.065 28.5979 15.0637 31.451 13.8819C34.3041 12.7001 37.4436 12.3909 40.4724 12.9934C43.5012 13.5958 46.2834 15.0829 48.4671 17.2666C50.6508 19.4503 52.1379 22.2325 52.7403 25.2613C53.3428 28.2902 53.0336 31.4296 51.8518 34.2827C50.67 37.1359 48.6687 39.5745 46.101 41.2902C43.5333 43.0059 40.5144 43.9216 37.4262 43.9216C33.2865 43.9171 29.3176 42.2706 26.3904 39.3433C23.4631 36.4161 21.8166 32.4472 21.8121 28.3075Z" fill="white"/>
</svg>
