<svg width="74" height="74" viewBox="0 0 74 74" fill="none" xmlns="http://www.w3.org/2000/svg">
<circle cx="37.4264" cy="36.7911" r="36.513" fill="#FA5A7D"/>
<path d="M37.4263 11.4207C32.5045 11.4207 27.6932 12.8801 23.6009 15.6145C19.5086 18.3489 16.319 22.2354 14.4355 26.7826C12.552 31.3297 12.0592 36.3333 13.0194 41.1605C13.9796 45.9877 16.3497 50.4218 19.8299 53.902C23.3102 57.3823 27.7442 59.7523 32.5715 60.7125C37.3987 61.6727 42.4022 61.1799 46.9494 59.2964C51.4965 57.4129 55.383 54.2234 58.1174 50.1311C60.8518 46.0387 62.3113 41.2275 62.3113 36.3057C62.3036 29.7081 59.6793 23.383 55.0141 18.7179C50.3489 14.0527 44.0238 11.4284 37.4263 11.4207ZM37.4263 58.263C33.0835 58.263 28.8383 56.9753 25.2274 54.5626C21.6166 52.1498 18.8022 48.7206 17.1403 44.7084C15.4784 40.6962 15.0436 36.2813 15.8908 32.022C16.7381 27.7627 18.8293 23.8503 21.9001 20.7795C24.9709 17.7087 28.8833 15.6174 33.1426 14.7702C37.4019 13.923 41.8168 14.3578 45.829 16.0197C49.8412 17.6816 53.2705 20.4959 55.6832 24.1068C58.0959 27.7177 59.3837 31.9629 59.3837 36.3057C59.3772 42.1271 57.0618 47.7083 52.9454 51.8247C48.829 55.9412 43.2478 58.2566 37.4263 58.263ZM26.2036 31.4263C26.2036 30.9437 26.3467 30.472 26.6148 30.0708C26.8829 29.6696 27.2639 29.3569 27.7097 29.1723C28.1555 28.9876 28.646 28.9393 29.1193 29.0334C29.5926 29.1276 30.0273 29.3599 30.3685 29.7011C30.7097 30.0423 30.942 30.477 31.0362 30.9503C31.1303 31.4235 31.082 31.9141 30.8973 32.3599C30.7127 32.8057 30.4 33.1867 29.9988 33.4548C29.5976 33.7229 29.1259 33.866 28.6433 33.866C27.9963 33.866 27.3757 33.6089 26.9182 33.1514C26.4607 32.6939 26.2036 32.0733 26.2036 31.4263ZM48.6489 31.4263C48.6489 31.9088 48.5059 32.3805 48.2378 32.7817C47.9697 33.1829 47.5887 33.4956 47.1429 33.6803C46.6971 33.8649 46.2065 33.9132 45.7333 33.8191C45.26 33.725 44.8253 33.4926 44.4841 33.1514C44.1429 32.8102 43.9105 32.3755 43.8164 31.9022C43.7223 31.429 43.7706 30.9384 43.9552 30.4926C44.1399 30.0468 44.4526 29.6658 44.8538 29.3977C45.255 29.1296 45.7267 28.9865 46.2092 28.9865C46.8563 28.9865 47.4768 29.2436 47.9344 29.7011C48.3919 30.1587 48.6489 30.7792 48.6489 31.4263ZM48.4513 47.2844C48.6263 47.6189 48.6653 48.0081 48.5601 48.3707C48.4549 48.7333 48.2137 49.0413 47.8868 49.2302C47.5599 49.4192 47.1727 49.4745 46.806 49.3847C46.4393 49.2948 46.1215 49.0668 45.9189 48.7482C44.0062 45.4448 40.9907 43.6248 37.4263 43.6248C33.8619 43.6248 30.8391 45.4448 28.9337 48.7482C28.8051 48.9708 28.6202 49.1557 28.3975 49.2842C28.1748 49.4127 27.9221 49.4803 27.665 49.4801C27.4078 49.4808 27.155 49.4126 26.9331 49.2825C26.598 49.0877 26.3538 48.768 26.2541 48.3934C26.1543 48.0188 26.2073 47.62 26.4012 47.2844C28.8214 43.0978 32.8396 40.6971 37.4263 40.6971C42.0129 40.6971 46.0311 43.0978 48.4513 47.2844Z" fill="white"/>
</svg>
