<svg width="411" height="126" viewBox="0 0 411 126" fill="none" xmlns="http://www.w3.org/2000/svg">
<path d="M102.212 0C90.3188 0 79.6017 5.17113 72 13.4499C64.3942 5.17113 53.677 0 41.7843 0C18.7093 0 0 19.4115 0 43.3535C0 45.0799 0.124618 46.7731 0.311544 48.4455C0.934633 58.6297 4.68563 69.8206 12.6695 81.307C18.8381 90.1807 28.201 99.5827 38.6606 107.62C49.3819 115.862 61.2455 122.672 71.9958 125.996C82.7462 122.672 94.6098 115.862 105.331 107.62C115.787 99.5786 125.154 90.1765 131.322 81.307C139.306 69.8206 143.057 58.6297 143.68 48.4455C143.871 46.7731 143.992 45.0799 143.992 43.3535C143.996 19.4115 125.291 0 102.212 0Z" fill="#FF0023"/>
<path d="M144 43.3493C144 45.0799 143.875 46.7731 143.684 48.4414C143.061 58.6256 139.31 69.8165 131.331 81.3028C125.158 90.1807 115.795 99.5786 105.339 107.62C94.6181 115.862 82.7545 122.664 72.0042 125.992V13.4541C79.6017 5.17529 90.3147 0 102.212 0C125.287 0 143.996 19.4073 143.996 43.3493H144Z" fill="#D60000"/>
<path d="M118.005 7.35108C119.496 11.7401 119.808 19.9149 112.829 26.6835C101.485 37.3378 91.8308 42.0222 90.1983 43.3909C86.2604 46.6858 89.1017 50.7087 94.7677 48.0004C100.845 44.9635 106.382 42.4673 104.916 46.1325C102.972 51.1372 94.0366 62.091 85.6249 69.8539C81.9487 73.3152 82.3599 75.3579 83.2613 76.1858C84.9852 77.775 90.647 74.1389 95.37 69.4213C98.9133 66.272 107.72 55.0103 108.816 56.0296C109.29 56.4914 108.434 58.2095 108.43 58.2095C105.248 64.4498 96.5165 74.4218 89.4797 81.698C85.762 85.6086 86.194 87.7137 87.1327 88.4958C88.9272 89.9976 94.5932 85.6793 99.4699 80.5581C103.254 77.2008 114.258 60.1024 115.529 61.6209C115.529 61.6209 116.111 61.7998 115.184 63.6095C111.795 70.0328 106.843 76.6517 100.114 85.2425C96.4874 89.7605 97.0149 91.8988 98.0202 92.5936C99.9393 93.929 105.568 88.7496 110.283 82.8462C113.917 78.8358 121.976 63.6261 123.322 65.2028C123.721 65.6521 122.69 67.649 122.686 67.649C119.529 73.6647 119.641 73.1363 114.121 82.0641C111.093 86.7402 111.728 88.6622 112.7 89.1739C114.561 90.1599 120.132 83.67 124.298 77.7874C131.202 68.0359 140.05 44.1148 139.784 24.3455C134.866 12.8966 125.548 4.48886 112.696 1.38119C113.872 1.83881 116.688 3.45297 118.013 7.35524L118.005 7.35108Z" fill="white"/>
<path d="M44.4885 92.5104C50.3207 77.3381 57.8642 71.2393 58.9608 69.4171C60.0076 67.6823 59.8788 66.3094 59.1228 65.7561C57.5526 64.5996 55.214 64.6703 52.6095 67.104C47.712 71.6844 44.9413 76.531 44.771 72.5872C44.4844 67.2247 48.1191 53.5584 52.5887 43.0123C54.512 38.3404 53.299 36.6472 52.1401 36.2686C49.9177 35.5323 46.2498 41.1818 43.8904 47.4263C41.9588 51.7571 38.565 65.6563 37.1486 65.1779C36.5296 64.9491 36.6002 63.0312 36.6044 63.0354C36.9367 56.0337 40.7916 43.3493 44.2061 33.8141C45.984 28.7179 44.7253 26.9747 43.5498 26.6502C41.2983 26.0221 37.9129 32.2956 35.5742 38.9728C33.5056 43.5947 30.7266 63.597 28.9446 62.74C28.9446 62.74 28.1885 62.3281 28.2924 60.2979C28.7369 53.0467 30.4649 45.575 33.0652 34.9665C34.5108 29.3502 33.1483 27.6196 31.9478 27.4032C29.6507 26.9789 26.6516 34.018 24.7865 41.3441C23.1207 46.4986 22.0366 63.6844 20.1632 62.8024C19.619 62.5569 19.7311 60.3104 19.7353 60.3146C20.1382 53.5293 20.2504 54.0576 21.6129 43.6447C22.4478 38.1366 21.077 36.643 19.9804 36.5806C17.8785 36.4475 15.76 43.4575 14.709 50.5922C13.3133 55.0187 13.4089 70.5404 16.246 86.0829C21.9327 93.7876 29.6549 101.259 38.2577 107.87C42.4614 111.102 46.7898 113.981 51.6582 116.531C49.0828 114.518 39.5371 105.39 44.4885 92.5145V92.5104Z" fill="white"/>
<path d="M163.949 55.8979H166.253C167.565 55.8979 168.621 55.5779 169.421 54.9379C170.253 54.2659 170.669 53.3219 170.669 52.1059C170.669 50.8899 170.285 49.9619 169.517 49.3219C168.781 48.6499 167.693 48.3139 166.253 48.3139C165.741 48.3139 165.309 48.3299 164.957 48.3619C164.637 48.3619 164.301 48.3939 163.949 48.4579V55.8979ZM166.781 62.4739H155.597V45.1459C155.597 44.4739 155.789 43.9619 156.173 43.6099C156.557 43.2259 157.053 42.9219 157.661 42.6979C158.749 42.3139 160.045 42.0419 161.549 41.8819C163.053 41.6899 164.397 41.5939 165.581 41.5939C169.965 41.5939 173.325 42.5379 175.661 44.4259C178.029 46.3139 179.213 48.8739 179.213 52.1059C179.213 54.1859 178.701 56.0099 177.677 57.5779C176.653 59.1139 175.213 60.3139 173.357 61.1779C171.501 62.0419 169.309 62.4739 166.781 62.4739ZM155.597 58.8259H163.997V71.4499C163.645 71.5459 163.101 71.6419 162.365 71.7379C161.629 71.8339 160.877 71.8819 160.109 71.8819C158.445 71.8819 157.277 71.5939 156.605 71.0179C155.933 70.4099 155.597 69.3699 155.597 67.8979V58.8259ZM182.863 62.2339V59.0659H191.023V62.2339C191.023 63.5139 191.343 64.4419 191.983 65.0179C192.655 65.5939 193.583 65.8819 194.767 65.8819C195.503 65.8819 196.111 65.8179 196.591 65.6899C197.071 65.5619 197.423 65.4339 197.647 65.3059V59.0659H205.807V66.5059C205.807 67.3059 205.631 68.0099 205.279 68.6179C204.959 69.1939 204.463 69.6899 203.791 70.1059C202.671 70.8099 201.327 71.3379 199.759 71.6899C198.223 72.0739 196.543 72.2659 194.719 72.2659C192.415 72.2659 190.367 71.9299 188.575 71.2579C186.783 70.5539 185.375 69.4659 184.351 67.9939C183.359 66.5219 182.863 64.6019 182.863 62.2339ZM205.807 61.1299H197.647V48.2659C197.999 48.1699 198.495 48.0739 199.135 47.9779C199.807 47.8819 200.527 47.8339 201.295 47.8339C202.895 47.8339 204.047 48.1059 204.751 48.6499C205.455 49.1619 205.807 50.1699 205.807 51.6739V61.1299ZM191.023 61.1299H182.863V48.2659C183.215 48.1699 183.711 48.0739 184.351 47.9779C185.023 47.8819 185.743 47.8339 186.511 47.8339C188.111 47.8339 189.263 48.1059 189.967 48.6499C190.671 49.1619 191.023 50.1699 191.023 51.6739V61.1299ZM211.041 58.8259H219.201V71.4499C218.849 71.5459 218.337 71.6419 217.665 71.7379C217.025 71.8339 216.321 71.8819 215.553 71.8819C213.985 71.8819 212.833 71.6099 212.097 71.0659C211.393 70.5219 211.041 69.5139 211.041 68.0419V58.8259ZM219.201 63.0979H211.041V40.2019C211.393 40.1059 211.889 40.0099 212.529 39.9139C213.201 39.8179 213.921 39.7699 214.689 39.7699C216.289 39.7699 217.441 40.0419 218.145 40.5859C218.849 41.0979 219.201 42.1059 219.201 43.6099V63.0979ZM244.121 64.5379C244.121 66.9699 243.193 68.8739 241.337 70.2499C239.513 71.6259 236.841 72.3139 233.321 72.3139C230.601 72.3139 228.361 71.9299 226.601 71.1619C224.873 70.3619 224.009 69.1299 224.009 67.4659C224.009 66.6979 224.169 66.0419 224.489 65.4979C224.809 64.9539 225.193 64.5219 225.641 64.2019C226.569 64.7139 227.625 65.1779 228.809 65.5939C230.025 65.9779 231.417 66.1699 232.985 66.1699C235.033 66.1699 236.057 65.6419 236.057 64.5859C236.057 64.1379 235.865 63.7859 235.481 63.5299C235.097 63.2739 234.457 63.0659 233.561 62.9059L232.121 62.6179C229.369 62.0739 227.305 61.2099 225.929 60.0259C224.553 58.8419 223.865 57.1779 223.865 55.0339C223.865 52.6339 224.841 50.7619 226.793 49.4179C228.745 48.0739 231.289 47.4019 234.425 47.4019C235.993 47.4019 237.417 47.5619 238.697 47.8819C240.009 48.1699 241.049 48.6499 241.817 49.3219C242.585 49.9619 242.969 50.7939 242.969 51.8179C242.969 52.5219 242.825 53.1459 242.537 53.6899C242.281 54.2339 241.945 54.6819 241.529 55.0339C241.177 54.8099 240.617 54.5859 239.849 54.3619C239.113 54.1379 238.313 53.9459 237.449 53.7859C236.585 53.6259 235.817 53.5459 235.145 53.5459C234.089 53.5459 233.273 53.6739 232.697 53.9299C232.121 54.1539 231.833 54.5219 231.833 55.0339C231.833 55.3859 231.993 55.6739 232.313 55.8979C232.633 56.1219 233.241 56.3299 234.137 56.5219L235.625 56.8579C238.697 57.5619 240.873 58.5379 242.153 59.7859C243.465 61.0019 244.121 62.5859 244.121 64.5379ZM252.237 63.4819L251.949 58.1059L263.037 56.2819C262.973 55.6419 262.653 55.0019 262.077 54.3619C261.501 53.7219 260.605 53.4019 259.389 53.4019C258.109 53.4019 257.037 53.8179 256.173 54.6499C255.341 55.4819 254.893 56.6659 254.829 58.2019L255.117 62.2339C255.437 63.7059 256.157 64.7299 257.277 65.3059C258.429 65.8819 259.709 66.1699 261.117 66.1699C262.461 66.1699 263.741 65.9939 264.957 65.6419C266.173 65.2899 267.149 64.9059 267.885 64.4899C268.397 64.8099 268.829 65.2579 269.181 65.8339C269.533 66.4099 269.709 67.0179 269.709 67.6579C269.709 68.7139 269.309 69.5939 268.509 70.2979C267.741 70.9699 266.669 71.4659 265.293 71.7859C263.917 72.1059 262.333 72.2659 260.541 72.2659C258.045 72.2659 255.789 71.8019 253.773 70.8739C251.789 69.9139 250.205 68.4899 249.021 66.6019C247.869 64.7139 247.293 62.3459 247.293 59.4979C247.293 57.3859 247.629 55.5619 248.301 54.0259C249.005 52.4899 249.933 51.2419 251.085 50.2819C252.237 49.3219 253.517 48.6179 254.925 48.1699C256.365 47.6899 257.837 47.4499 259.341 47.4499C261.613 47.4499 263.597 47.8979 265.293 48.7939C266.989 49.6579 268.317 50.8579 269.277 52.3939C270.237 53.8979 270.717 55.6419 270.717 57.6259C270.717 58.7139 270.413 59.5459 269.805 60.1219C269.197 60.6979 268.349 61.0659 267.261 61.2259L252.237 63.4819Z" fill="#D60000"/>
<path d="M310.078 57.3859V67.5619C310.078 68.3299 309.902 68.9379 309.55 69.3859C309.23 69.8019 308.702 70.2019 307.966 70.5859C307.134 71.0339 305.934 71.4179 304.366 71.7379C302.83 72.0579 301.294 72.2179 299.758 72.2179C296.718 72.2179 293.998 71.6899 291.598 70.6339C289.23 69.5459 287.358 67.8819 285.982 65.6419C284.606 63.3699 283.918 60.4739 283.918 56.9539C283.918 53.5619 284.622 50.7299 286.03 48.4579C287.438 46.1859 289.31 44.4739 291.646 43.3219C294.014 42.1699 296.622 41.5939 299.47 41.5939C301.358 41.5939 303.006 41.8019 304.414 42.2179C305.854 42.6339 306.958 43.1779 307.726 43.8499C308.526 44.5219 308.926 45.2579 308.926 46.0579C308.926 46.6339 308.766 47.1619 308.446 47.6419C308.126 48.1219 307.742 48.4899 307.294 48.7459C306.462 48.2019 305.438 47.6899 304.222 47.2099C303.038 46.7299 301.582 46.4899 299.854 46.4899C297.998 46.4899 296.318 46.9059 294.814 47.7379C293.342 48.5379 292.174 49.7219 291.31 51.2899C290.478 52.8259 290.062 54.7139 290.062 56.9539C290.062 59.3219 290.478 61.2739 291.31 62.8099C292.174 64.3459 293.342 65.4979 294.814 66.2659C296.286 67.0019 297.966 67.3699 299.854 67.3699C300.782 67.3699 301.646 67.2899 302.446 67.1299C303.246 66.9379 303.87 66.7299 304.318 66.5059V59.6419H298.03C297.902 59.3859 297.758 59.0499 297.598 58.6339C297.47 58.2179 297.406 57.7859 297.406 57.3379C297.406 56.5059 297.598 55.8979 297.982 55.5139C298.366 55.0979 298.878 54.8899 299.518 54.8899H307.582C308.35 54.8899 308.958 55.1139 309.406 55.5619C309.854 56.0099 310.078 56.6179 310.078 57.3859ZM316.095 62.8579V59.0179H321.951V62.7619C321.951 64.4579 322.383 65.6899 323.247 66.4579C324.143 67.1939 325.391 67.5619 326.991 67.5619C328.015 67.5619 328.879 67.4659 329.583 67.2739C330.287 67.0499 330.831 66.8259 331.215 66.6019V59.0179H337.023V67.0819C337.023 67.8179 336.895 68.4259 336.639 68.9059C336.415 69.3859 335.967 69.8339 335.295 70.2499C334.399 70.7939 333.231 71.2419 331.791 71.5939C330.383 71.9779 328.767 72.1699 326.943 72.1699C324.735 72.1699 322.815 71.8499 321.183 71.2099C319.551 70.5699 318.287 69.5619 317.391 68.1859C316.527 66.7779 316.095 65.0019 316.095 62.8579ZM337.023 61.3219H331.215V48.8899C331.471 48.7939 331.839 48.7139 332.319 48.6499C332.799 48.5539 333.311 48.5059 333.855 48.5059C334.975 48.5059 335.775 48.6979 336.255 49.0819C336.767 49.4659 337.023 50.1859 337.023 51.2419V61.3219ZM321.951 61.3219H316.095V48.8899C316.351 48.7939 316.719 48.7139 317.199 48.6499C317.679 48.5539 318.207 48.5059 318.783 48.5059C319.871 48.5059 320.671 48.6979 321.183 49.0819C321.695 49.4659 321.951 50.1859 321.951 51.2419V61.3219ZM352.116 67.7539C353.108 67.7539 353.988 67.6579 354.756 67.4659C355.524 67.2739 356.084 67.0659 356.436 66.8419V61.3219L351.636 61.7539C350.324 61.8819 349.316 62.1859 348.612 62.6659C347.94 63.1139 347.604 63.8019 347.604 64.7299C347.604 65.6579 347.972 66.3939 348.708 66.9379C349.444 67.4819 350.58 67.7539 352.116 67.7539ZM351.924 48.1219C355.028 48.1219 357.492 48.7939 359.316 50.1379C361.172 51.4499 362.1 53.5299 362.1 56.3779V67.4659C362.1 68.2339 361.924 68.8419 361.572 69.2899C361.22 69.7059 360.756 70.0899 360.18 70.4419C359.284 70.9539 358.148 71.3699 356.772 71.6899C355.396 72.0419 353.844 72.2179 352.116 72.2179C348.948 72.2179 346.452 71.6099 344.628 70.3939C342.804 69.1459 341.892 67.3059 341.892 64.8739C341.892 62.7299 342.564 61.0979 343.908 59.9779C345.284 58.8259 347.268 58.1219 349.86 57.8659L356.436 57.1939V56.3299C356.436 55.0179 355.988 54.0739 355.092 53.4979C354.196 52.9219 352.948 52.6339 351.348 52.6339C350.1 52.6339 348.884 52.7939 347.7 53.1139C346.516 53.4339 345.46 53.8179 344.532 54.2659C344.212 54.0099 343.924 53.6739 343.668 53.2579C343.444 52.8099 343.332 52.3459 343.332 51.8659C343.332 50.7139 343.956 49.8659 345.204 49.3219C346.1 48.9379 347.14 48.6499 348.324 48.4579C349.508 48.2339 350.708 48.1219 351.924 48.1219ZM374.03 54.1699V60.7939H368.174V53.7379C368.174 52.9379 368.366 52.2659 368.75 51.7219C369.134 51.1459 369.678 50.6339 370.382 50.1859C371.342 49.5779 372.558 49.0819 374.03 48.6979C375.502 48.3139 377.086 48.1219 378.782 48.1219C381.758 48.1219 383.246 49.0499 383.246 50.9059C383.246 51.3219 383.182 51.7219 383.054 52.1059C382.926 52.4899 382.766 52.8099 382.574 53.0659C382.254 53.0019 381.854 52.9539 381.374 52.9219C380.894 52.8579 380.398 52.8259 379.886 52.8259C378.702 52.8259 377.598 52.9539 376.574 53.2099C375.582 53.4659 374.734 53.7859 374.03 54.1699ZM368.174 58.8259L374.03 59.1139V71.4019C373.774 71.4979 373.406 71.5779 372.926 71.6419C372.446 71.7379 371.934 71.7859 371.39 71.7859C370.302 71.7859 369.486 71.5939 368.942 71.2099C368.43 70.8259 368.174 70.1219 368.174 69.0979V58.8259ZM401.527 66.5539V51.4339H407.335V67.1779C407.335 67.8499 407.175 68.4259 406.855 68.9059C406.567 69.3539 406.087 69.7859 405.415 70.2019C404.647 70.7139 403.607 71.1619 402.295 71.5459C400.983 71.9619 399.479 72.1699 397.783 72.1699C395.255 72.1699 393.063 71.7539 391.207 70.9219C389.351 70.0579 387.911 68.7459 386.887 66.9859C385.863 65.1939 385.351 62.9379 385.351 60.2179C385.351 57.4339 385.863 55.1619 386.887 53.4019C387.911 51.6099 389.303 50.2819 391.063 49.4179C392.823 48.5539 394.775 48.1219 396.919 48.1219C398.103 48.1219 399.175 48.2659 400.135 48.5539C401.127 48.8419 401.927 49.1939 402.535 49.6099V54.6019C402.023 54.1219 401.351 53.7059 400.519 53.3539C399.687 52.9699 398.727 52.7779 397.639 52.7779C396.423 52.7779 395.335 53.0339 394.375 53.5459C393.415 54.0579 392.647 54.8739 392.071 55.9939C391.527 57.0819 391.255 58.5219 391.255 60.3139C391.255 62.8099 391.831 64.6339 392.983 65.7859C394.167 66.9379 395.751 67.5139 397.735 67.5139C398.599 67.5139 399.335 67.4179 399.943 67.2259C400.551 67.0339 401.079 66.8099 401.527 66.5539ZM407.335 52.6339L401.479 52.6819V40.2979C401.735 40.2339 402.103 40.1539 402.583 40.0579C403.063 39.9619 403.575 39.9139 404.119 39.9139C405.239 39.9139 406.055 40.1219 406.567 40.5379C407.079 40.9219 407.335 41.6099 407.335 42.6019V52.6339Z" fill="black"/>
<path d="M156.188 90.0979L155.298 90.0879C154.971 90.0879 154.721 90.0946 154.548 90.1079C154.441 91.0546 154.388 91.9046 154.388 92.6579C155.928 92.6579 157.041 92.5579 157.728 92.3579C157.681 92.7446 157.548 93.0446 157.327 93.2579C157.114 93.4713 156.844 93.5779 156.518 93.5779C156.424 93.5779 156.134 93.5546 155.648 93.5079C155.168 93.4679 154.701 93.4479 154.248 93.4479C153.794 93.4479 153.341 93.4913 152.888 93.5779C152.941 93.3579 153.068 93.1679 153.268 93.0079C153.261 92.9679 153.258 92.8413 153.258 92.6279C153.258 92.4146 153.354 91.6246 153.548 90.2579C153.361 90.3046 153.201 90.3546 153.068 90.4079C153.054 90.2879 153.048 90.1913 153.048 90.1179C153.048 89.7113 153.254 89.4579 153.668 89.3579C153.821 88.2379 153.904 87.3446 153.918 86.6779C153.744 86.6646 153.621 86.6213 153.548 86.5479C153.481 86.4746 153.448 86.3446 153.448 86.1579C153.448 85.9646 153.474 85.7946 153.528 85.6479C154.214 85.7413 154.961 85.7879 155.768 85.7879C156.574 85.7879 157.344 85.7146 158.078 85.5679C158.038 85.8213 157.944 86.0279 157.798 86.1879C157.658 86.3413 157.431 86.4513 157.118 86.5179C156.804 86.5846 156.544 86.6246 156.338 86.6379C155.964 86.6713 155.504 86.6879 154.958 86.6879C154.951 86.9279 154.848 87.8046 154.648 89.3179C155.061 89.3313 155.361 89.3379 155.548 89.3379C156.134 89.3379 156.551 89.2413 156.798 89.0479C156.811 89.1546 156.818 89.2413 156.818 89.3079C156.818 89.8346 156.608 90.0979 156.188 90.0979ZM163.986 89.7079C163.813 90.0213 163.666 90.4213 163.546 90.9079C163.426 91.3946 163.366 91.8546 163.366 92.2879C163.366 92.7213 163.386 93.1246 163.426 93.4979C163.253 93.5113 163.149 93.5179 163.116 93.5179C162.536 93.5179 162.246 93.2346 162.246 92.6679C162.246 92.4613 162.316 91.9479 162.456 91.1279C162.603 90.3079 162.676 89.6946 162.676 89.2879C162.676 88.8746 162.523 88.6679 162.216 88.6679C161.836 88.6679 161.449 89.0346 161.056 89.7679C160.663 90.5013 160.466 91.3913 160.466 92.4379C160.466 92.7713 160.486 93.1246 160.526 93.4979C160.353 93.5113 160.249 93.5179 160.216 93.5179C159.636 93.5179 159.346 93.2346 159.346 92.6679C159.346 92.5946 159.413 92.0979 159.546 91.1779C159.686 90.2579 159.756 89.5313 159.756 88.9979C159.756 88.4579 159.699 87.9646 159.586 87.5179C159.986 87.6713 160.263 87.8913 160.416 88.1779C160.576 88.4646 160.656 88.8179 160.656 89.2379C160.656 89.4513 160.633 89.7213 160.586 90.0479C160.813 89.3813 161.126 88.8279 161.526 88.3879C161.926 87.9479 162.293 87.7279 162.626 87.7279C163.373 87.7279 163.746 88.3046 163.746 89.4579C163.993 88.9246 164.276 88.5046 164.596 88.1979C164.923 87.8846 165.226 87.7279 165.506 87.7279C165.913 87.7279 166.199 87.8513 166.366 88.0979C166.533 88.3379 166.616 88.6679 166.616 89.0879C166.616 89.5013 166.549 90.0846 166.416 90.8379C166.289 91.5913 166.226 92.1413 166.226 92.4879C166.226 92.8279 166.269 93.0779 166.356 93.2379C166.443 93.3913 166.589 93.5246 166.796 93.6379C166.709 93.6446 166.586 93.6479 166.426 93.6479C165.999 93.6479 165.683 93.5613 165.476 93.3879C165.276 93.2079 165.176 92.9046 165.176 92.4779C165.176 92.2313 165.243 91.7346 165.376 90.9879C165.509 90.2346 165.576 89.6813 165.576 89.3279C165.576 88.8879 165.423 88.6679 165.116 88.6679C164.943 88.6679 164.756 88.7613 164.556 88.9479C164.356 89.1346 164.166 89.3879 163.986 89.7079ZM169.591 89.8879C169.865 89.2679 170.208 88.7946 170.621 88.4679C171.041 88.1346 171.455 87.9679 171.861 87.9679C172.275 87.9679 172.615 88.1346 172.881 88.4679C173.148 88.7946 173.281 89.2713 173.281 89.8979C173.281 90.8913 173.018 91.7413 172.491 92.4479C171.971 93.1479 171.345 93.4979 170.611 93.4979C170.351 93.4979 170.085 93.4446 169.811 93.3379C170.311 93.2379 170.748 92.9846 171.121 92.5779C171.501 92.1646 171.775 91.7246 171.941 91.2579C172.115 90.7846 172.201 90.3613 172.201 89.9879C172.201 89.6079 172.135 89.3179 172.001 89.1179C171.868 88.9179 171.678 88.8179 171.431 88.8179C170.971 88.8179 170.561 89.0746 170.201 89.5879C169.841 90.0946 169.565 90.7846 169.371 91.6579C169.178 92.5313 169.081 93.4313 169.081 94.3579C169.081 95.2913 169.148 96.1013 169.281 96.7879C168.875 96.7679 168.555 96.6779 168.321 96.5179C168.088 96.3579 167.971 96.0613 167.971 95.6279C167.971 95.4679 168.071 94.6246 168.271 93.0979C168.478 91.5646 168.581 90.3846 168.581 89.5579C168.581 88.7313 168.531 88.0346 168.431 87.4679C168.871 87.5946 169.175 87.8546 169.341 88.2479C169.508 88.6346 169.591 89.1813 169.591 89.8879ZM178.476 90.2179C178.476 89.5646 178.392 89.0979 178.226 88.8179C178.066 88.5313 177.832 88.3879 177.526 88.3879C177.226 88.3879 176.922 88.5379 176.616 88.8379C176.309 89.1313 176.066 89.4979 175.886 89.9379C175.712 90.3713 175.626 90.8246 175.626 91.2979C175.626 91.7646 175.716 92.1713 175.896 92.5179C176.076 92.8579 176.349 93.0279 176.716 93.0279C177.236 93.0279 177.659 92.7213 177.986 92.1079C178.312 91.4946 178.476 90.8646 178.476 90.2179ZM175.576 89.8279C175.829 89.1079 176.169 88.5846 176.596 88.2579C177.029 87.9246 177.466 87.7579 177.906 87.7579C178.352 87.7579 178.722 87.9546 179.016 88.3479C179.309 88.7346 179.456 89.2613 179.456 89.9279C179.456 90.6613 179.316 91.3413 179.036 91.9679C178.722 92.6613 178.269 93.1446 177.676 93.4179C177.356 93.5713 177.002 93.6479 176.616 93.6479C176.076 93.6479 175.602 93.4246 175.196 92.9779C174.789 92.5246 174.586 91.8813 174.586 91.0479C174.586 90.2079 174.766 89.4813 175.126 88.8679C175.486 88.2546 175.976 87.8279 176.596 87.5879C176.729 87.5879 176.796 87.6546 176.796 87.7879C176.136 88.2213 175.729 88.9013 175.576 89.8279ZM185.431 93.4979C185.404 93.5179 185.318 93.5446 185.171 93.5779C185.031 93.6179 184.898 93.6379 184.771 93.6379C184.651 93.6379 184.581 93.5879 184.561 93.4879C184.468 93.0746 184.358 92.4279 184.231 91.5479C184.104 90.6679 184.018 90.0946 183.971 89.8279C183.838 90.1279 183.554 90.7179 183.121 91.5979C182.694 92.4779 182.404 93.1113 182.251 93.4979C182.218 93.5246 182.144 93.5546 182.031 93.5879C181.924 93.6213 181.811 93.6379 181.691 93.6379C181.571 93.6379 181.501 93.5879 181.481 93.4879C181.381 93.0613 181.274 92.4246 181.161 91.5779C181.048 90.7246 180.928 89.9813 180.801 89.3479C180.674 88.7079 180.514 88.2246 180.321 87.8979C180.574 87.7246 180.784 87.6379 180.951 87.6379C181.124 87.6379 181.264 87.6779 181.371 87.7579C181.484 87.8313 181.574 87.9513 181.641 88.1179C181.714 88.2779 181.771 88.4579 181.811 88.6579C181.851 88.8513 181.884 89.1013 181.911 89.4079C181.938 89.7079 181.961 89.9979 181.981 90.2779C182.041 91.1713 182.104 91.8946 182.171 92.4479C182.938 90.6679 183.434 89.3513 183.661 88.4979C183.588 88.2846 183.501 88.0846 183.401 87.8979C183.654 87.7246 183.864 87.6379 184.031 87.6379C184.198 87.6379 184.334 87.6779 184.441 87.7579C184.548 87.8313 184.634 87.9513 184.701 88.1179C184.768 88.2779 184.821 88.4579 184.861 88.6579C184.908 88.8513 184.944 89.1013 184.971 89.4079C185.004 89.7079 185.031 89.9979 185.051 90.2779C185.104 91.0579 185.171 91.7813 185.251 92.4479C185.584 91.6679 185.838 91.0713 186.011 90.6579C186.184 90.2379 186.371 89.7046 186.571 89.0579C186.771 88.4113 186.874 87.8946 186.881 87.5079C187.294 87.7079 187.501 88.0313 187.501 88.4779C187.501 88.7779 187.381 89.1879 187.141 89.7079C186.908 90.2279 186.611 90.8513 186.251 91.5779C185.891 92.2979 185.618 92.9379 185.431 93.4979ZM190.83 88.2479C190.43 88.2479 190.09 88.4779 189.81 88.9379C189.537 89.3979 189.353 89.9379 189.26 90.5579H189.54C189.893 90.5579 190.2 90.5079 190.46 90.4079C190.72 90.3079 190.92 90.1779 191.06 90.0179C191.327 89.7113 191.46 89.3646 191.46 88.9779C191.46 88.7579 191.407 88.5813 191.3 88.4479C191.2 88.3146 191.043 88.2479 190.83 88.2479ZM192.24 92.2979C191.933 92.7979 191.597 93.1479 191.23 93.3479C190.863 93.5479 190.437 93.6479 189.95 93.6479C189.47 93.6479 189.05 93.4346 188.69 93.0079C188.33 92.5813 188.15 91.9813 188.15 91.2079C188.15 90.3279 188.387 89.5413 188.86 88.8479C189.093 88.5146 189.397 88.2446 189.77 88.0379C190.15 87.8313 190.567 87.7279 191.02 87.7279C192.02 87.7279 192.52 88.2113 192.52 89.1779C192.52 89.7579 192.293 90.2146 191.84 90.5479C191.393 90.8746 190.873 91.0379 190.28 91.0379C189.887 91.0379 189.533 91.0013 189.22 90.9279C189.213 90.9946 189.21 91.0979 189.21 91.2379C189.21 92.4179 189.56 93.0079 190.26 93.0079C190.92 93.0079 191.457 92.6813 191.87 92.0279C192.117 92.0613 192.24 92.1513 192.24 92.2979ZM194.99 90.2479C195.23 89.3813 195.517 88.7446 195.85 88.3379C196.19 87.9246 196.503 87.7179 196.79 87.7179C197.083 87.7179 197.303 87.8279 197.45 88.0479C197.597 88.2613 197.67 88.5346 197.67 88.8679C197.67 89.2013 197.583 89.4913 197.41 89.7379C197.237 89.9779 196.983 90.0979 196.65 90.0979C196.543 90.0979 196.46 90.0913 196.4 90.0779C196.627 89.7513 196.74 89.4179 196.74 89.0779C196.74 88.8379 196.643 88.7179 196.45 88.7179C196.297 88.7179 196.133 88.8079 195.96 88.9879C195.787 89.1679 195.62 89.4179 195.46 89.7379C195.3 90.0579 195.167 90.4746 195.06 90.9879C194.953 91.5013 194.9 92.0546 194.9 92.6479C194.9 92.7146 194.917 92.9979 194.95 93.4979C194.777 93.5113 194.677 93.5179 194.65 93.5179C194.063 93.5179 193.77 93.2313 193.77 92.6579C193.77 92.5246 193.84 92.0113 193.98 91.1179C194.12 90.2246 194.19 89.5146 194.19 88.9879C194.19 88.4546 194.133 87.9646 194.02 87.5179C194.413 87.6713 194.687 87.8913 194.84 88.1779C195 88.4579 195.08 88.7879 195.08 89.1679C195.08 89.5413 195.05 89.9013 194.99 90.2479ZM199.589 93.6479C199.209 93.5146 198.942 93.3113 198.789 93.0379C198.642 92.7579 198.569 92.4213 198.569 92.0279C198.569 91.6346 198.622 91.0713 198.729 90.3379C198.835 89.6046 198.889 89.0346 198.889 88.6279C198.889 88.2213 198.869 87.9079 198.829 87.6879C198.949 87.6746 199.045 87.6679 199.119 87.6679C199.419 87.6679 199.635 87.7346 199.769 87.8679C199.902 88.0013 199.969 88.2213 199.969 88.5279C199.969 88.6279 199.885 89.1546 199.719 90.1079C199.559 91.0546 199.475 91.8379 199.469 92.4579C199.469 93.0713 199.509 93.4679 199.589 93.6479ZM199.739 86.6779C199.179 86.6779 198.899 86.4879 198.899 86.1079C198.899 85.9746 198.949 85.7879 199.049 85.5479C199.195 85.5213 199.322 85.5079 199.429 85.5079C199.989 85.5079 200.269 85.6979 200.269 86.0779C200.269 86.2113 200.219 86.3979 200.119 86.6379C199.972 86.6646 199.845 86.6779 199.739 86.6779ZM206.192 89.1479C206.192 89.4546 206.125 89.9979 205.992 90.7779C205.865 91.5513 205.802 92.1146 205.802 92.4679C205.802 92.8213 205.845 93.0779 205.932 93.2379C206.018 93.3913 206.165 93.5246 206.372 93.6379C206.285 93.6446 206.162 93.6479 206.002 93.6479C205.548 93.6479 205.225 93.5646 205.032 93.3979C204.845 93.2246 204.752 92.9179 204.752 92.4779C204.752 92.2313 204.818 91.7346 204.952 90.9879C205.085 90.2346 205.152 89.6813 205.152 89.3279C205.152 88.8879 205.018 88.6679 204.752 88.6679C204.325 88.6679 203.882 89.0446 203.422 89.7979C202.968 90.5513 202.742 91.4579 202.742 92.5179C202.742 92.9379 202.762 93.2646 202.802 93.4979C202.628 93.5113 202.525 93.5179 202.492 93.5179C201.905 93.5179 201.612 93.2313 201.612 92.6579C201.612 92.5246 201.682 92.0113 201.822 91.1179C201.962 90.2246 202.032 89.5146 202.032 88.9879C202.032 88.4546 201.975 87.9646 201.862 87.5179C202.255 87.6713 202.528 87.8913 202.682 88.1779C202.842 88.4579 202.922 88.7813 202.922 89.1479C202.922 89.5079 202.882 89.9279 202.802 90.4079C203.022 89.6546 203.365 89.0213 203.832 88.5079C204.305 87.9879 204.745 87.7279 205.152 87.7279C205.845 87.7279 206.192 88.2013 206.192 89.1479ZM210.811 87.8279C211.065 87.8279 211.205 87.9246 211.231 88.1179C210.498 88.2713 209.888 88.6846 209.401 89.3579C208.915 90.0246 208.671 90.6979 208.671 91.3779C208.671 91.7513 208.741 92.0613 208.881 92.3079C209.028 92.5546 209.255 92.6779 209.561 92.6779C209.875 92.6779 210.168 92.5113 210.441 92.1779C210.928 91.5846 211.258 90.6513 211.431 89.3779C211.538 88.5579 211.661 88.0246 211.801 87.7779C211.988 87.4713 212.218 87.2679 212.491 87.1679C212.398 87.8746 212.351 88.4079 212.351 88.7679C212.351 91.4346 212.078 93.4379 211.531 94.7779C210.985 96.1179 210.095 96.7879 208.861 96.7879C208.375 96.7879 207.991 96.6679 207.711 96.4279C207.438 96.1946 207.301 95.9279 207.301 95.6279C207.301 95.3279 207.381 95.0713 207.541 94.8579C207.708 94.6446 207.925 94.5379 208.191 94.5379C208.338 94.5379 208.491 94.5713 208.651 94.6379C208.545 94.7113 208.455 94.8246 208.381 94.9779C208.308 95.1313 208.271 95.3013 208.271 95.4879C208.271 95.6813 208.341 95.8413 208.481 95.9679C208.628 96.1013 208.828 96.1679 209.081 96.1679C209.335 96.1679 209.575 96.0913 209.801 95.9379C210.028 95.7913 210.245 95.5579 210.451 95.2379C210.891 94.5446 211.131 93.3546 211.171 91.6679C210.985 92.2413 210.695 92.7013 210.301 93.0479C209.915 93.3946 209.521 93.5679 209.121 93.5679C208.608 93.5679 208.218 93.3746 207.951 92.9879C207.691 92.5946 207.561 92.0946 207.561 91.4879C207.561 90.6413 207.841 89.8346 208.401 89.0679C208.668 88.7013 209.011 88.4046 209.431 88.1779C209.851 87.9446 210.311 87.8279 210.811 87.8279ZM219.744 93.6479C219.004 93.6479 218.38 93.3479 217.874 92.7479C217.367 92.1479 217.114 91.2746 217.114 90.1279C217.114 89.2813 217.25 88.5113 217.524 87.8179C217.797 87.1179 218.224 86.5479 218.804 86.1079C219.39 85.6613 220.05 85.4379 220.784 85.4379C221.517 85.4379 222.05 85.6179 222.384 85.9779C222.717 86.3313 222.884 86.7379 222.884 87.1979C222.884 87.6579 222.767 88.0279 222.534 88.3079C222.3 88.5813 221.997 88.7179 221.624 88.7179C221.504 88.7179 221.357 88.6913 221.184 88.6379C221.337 88.4779 221.47 88.2546 221.584 87.9679C221.704 87.6746 221.764 87.3813 221.764 87.0879C221.764 86.7946 221.684 86.5446 221.524 86.3379C221.37 86.1246 221.124 86.0179 220.784 86.0179C220.27 86.0179 219.81 86.2313 219.404 86.6579C219.004 87.0779 218.7 87.5979 218.494 88.2179C218.294 88.8313 218.194 89.4646 218.194 90.1179C218.194 91.0379 218.37 91.7279 218.724 92.1879C219.077 92.6413 219.534 92.8679 220.094 92.8679C220.467 92.8679 220.85 92.7546 221.244 92.5279C221.637 92.3013 221.96 91.9746 222.214 91.5479C222.314 91.5479 222.407 91.5779 222.494 91.6379C222.58 91.6979 222.624 91.7579 222.624 91.8179C222.25 92.5246 221.78 93.0146 221.214 93.2879C220.72 93.5279 220.23 93.6479 219.744 93.6479ZM227.724 90.2179C227.724 89.5646 227.64 89.0979 227.474 88.8179C227.314 88.5313 227.08 88.3879 226.774 88.3879C226.474 88.3879 226.17 88.5379 225.864 88.8379C225.557 89.1313 225.314 89.4979 225.134 89.9379C224.96 90.3713 224.874 90.8246 224.874 91.2979C224.874 91.7646 224.964 92.1713 225.144 92.5179C225.324 92.8579 225.597 93.0279 225.964 93.0279C226.484 93.0279 226.907 92.7213 227.234 92.1079C227.56 91.4946 227.724 90.8646 227.724 90.2179ZM224.824 89.8279C225.077 89.1079 225.417 88.5846 225.844 88.2579C226.277 87.9246 226.714 87.7579 227.154 87.7579C227.6 87.7579 227.97 87.9546 228.264 88.3479C228.557 88.7346 228.704 89.2613 228.704 89.9279C228.704 90.6613 228.564 91.3413 228.284 91.9679C227.97 92.6613 227.517 93.1446 226.924 93.4179C226.604 93.5713 226.25 93.6479 225.864 93.6479C225.324 93.6479 224.85 93.4246 224.444 92.9779C224.037 92.5246 223.834 91.8813 223.834 91.0479C223.834 90.2079 224.014 89.4813 224.374 88.8679C224.734 88.2546 225.224 87.8279 225.844 87.5879C225.977 87.5879 226.044 87.6546 226.044 87.7879C225.384 88.2213 224.977 88.9013 224.824 89.8279ZM234.845 89.7079C234.672 90.0213 234.525 90.4213 234.405 90.9079C234.285 91.3946 234.225 91.8546 234.225 92.2879C234.225 92.7213 234.245 93.1246 234.285 93.4979C234.112 93.5113 234.009 93.5179 233.975 93.5179C233.395 93.5179 233.105 93.2346 233.105 92.6679C233.105 92.4613 233.175 91.9479 233.315 91.1279C233.462 90.3079 233.535 89.6946 233.535 89.2879C233.535 88.8746 233.382 88.6679 233.075 88.6679C232.695 88.6679 232.309 89.0346 231.915 89.7679C231.522 90.5013 231.325 91.3913 231.325 92.4379C231.325 92.7713 231.345 93.1246 231.385 93.4979C231.212 93.5113 231.109 93.5179 231.075 93.5179C230.495 93.5179 230.205 93.2346 230.205 92.6679C230.205 92.5946 230.272 92.0979 230.405 91.1779C230.545 90.2579 230.615 89.5313 230.615 88.9979C230.615 88.4579 230.559 87.9646 230.445 87.5179C230.845 87.6713 231.122 87.8913 231.275 88.1779C231.435 88.4646 231.515 88.8179 231.515 89.2379C231.515 89.4513 231.492 89.7213 231.445 90.0479C231.672 89.3813 231.985 88.8279 232.385 88.3879C232.785 87.9479 233.152 87.7279 233.485 87.7279C234.232 87.7279 234.605 88.3046 234.605 89.4579C234.852 88.9246 235.135 88.5046 235.455 88.1979C235.782 87.8846 236.085 87.7279 236.365 87.7279C236.772 87.7279 237.059 87.8513 237.225 88.0979C237.392 88.3379 237.475 88.6679 237.475 89.0879C237.475 89.5013 237.409 90.0846 237.275 90.8379C237.149 91.5913 237.085 92.1413 237.085 92.4879C237.085 92.8279 237.129 93.0779 237.215 93.2379C237.302 93.3913 237.449 93.5246 237.655 93.6379C237.569 93.6446 237.445 93.6479 237.285 93.6479C236.859 93.6479 236.542 93.5613 236.335 93.3879C236.135 93.2079 236.035 92.9046 236.035 92.4779C236.035 92.2313 236.102 91.7346 236.235 90.9879C236.369 90.2346 236.435 89.6813 236.435 89.3279C236.435 88.8879 236.282 88.6679 235.975 88.6679C235.802 88.6679 235.615 88.7613 235.415 88.9479C235.215 89.1346 235.025 89.3879 234.845 89.7079ZM243.791 89.7079C243.617 90.0213 243.471 90.4213 243.351 90.9079C243.231 91.3946 243.171 91.8546 243.171 92.2879C243.171 92.7213 243.191 93.1246 243.231 93.4979C243.057 93.5113 242.954 93.5179 242.921 93.5179C242.341 93.5179 242.051 93.2346 242.051 92.6679C242.051 92.4613 242.121 91.9479 242.261 91.1279C242.407 90.3079 242.481 89.6946 242.481 89.2879C242.481 88.8746 242.327 88.6679 242.021 88.6679C241.641 88.6679 241.254 89.0346 240.861 89.7679C240.467 90.5013 240.271 91.3913 240.271 92.4379C240.271 92.7713 240.291 93.1246 240.331 93.4979C240.157 93.5113 240.054 93.5179 240.021 93.5179C239.441 93.5179 239.151 93.2346 239.151 92.6679C239.151 92.5946 239.217 92.0979 239.351 91.1779C239.491 90.2579 239.561 89.5313 239.561 88.9979C239.561 88.4579 239.504 87.9646 239.391 87.5179C239.791 87.6713 240.067 87.8913 240.221 88.1779C240.381 88.4646 240.461 88.8179 240.461 89.2379C240.461 89.4513 240.437 89.7213 240.391 90.0479C240.617 89.3813 240.931 88.8279 241.331 88.3879C241.731 87.9479 242.097 87.7279 242.431 87.7279C243.177 87.7279 243.551 88.3046 243.551 89.4579C243.797 88.9246 244.081 88.5046 244.401 88.1979C244.727 87.8846 245.031 87.7279 245.311 87.7279C245.717 87.7279 246.004 87.8513 246.171 88.0979C246.337 88.3379 246.421 88.6679 246.421 89.0879C246.421 89.5013 246.354 90.0846 246.221 90.8379C246.094 91.5913 246.031 92.1413 246.031 92.4879C246.031 92.8279 246.074 93.0779 246.161 93.2379C246.247 93.3913 246.394 93.5246 246.601 93.6379C246.514 93.6446 246.391 93.6479 246.231 93.6479C245.804 93.6479 245.487 93.5613 245.281 93.3879C245.081 93.2079 244.981 92.9046 244.981 92.4779C244.981 92.2313 245.047 91.7346 245.181 90.9879C245.314 90.2346 245.381 89.6813 245.381 89.3279C245.381 88.8879 245.227 88.6679 244.921 88.6679C244.747 88.6679 244.561 88.7613 244.361 88.9479C244.161 89.1346 243.971 89.3879 243.791 89.7079ZM251.646 87.7079C252.219 87.7079 252.506 88.0046 252.506 88.5979C252.506 88.7046 252.443 89.1746 252.316 90.0079C252.189 90.8346 252.126 91.5446 252.126 92.1379C252.126 92.7313 252.189 93.2546 252.316 93.7079C251.909 93.5479 251.626 93.3213 251.466 93.0279C251.313 92.7346 251.236 92.3713 251.236 91.9379C251.236 91.7713 251.273 91.3946 251.346 90.8079C251.146 91.5679 250.836 92.2079 250.416 92.7279C249.996 93.2413 249.606 93.4979 249.246 93.4979C248.486 93.4979 248.106 92.9446 248.106 91.8379C248.106 91.4713 248.159 90.9613 248.266 90.3079C248.379 89.6479 248.436 89.1479 248.436 88.8079C248.436 88.4679 248.389 88.1246 248.296 87.7779C248.723 87.7779 249.043 87.8513 249.256 87.9979C249.469 88.1446 249.576 88.4279 249.576 88.8479C249.576 89.0746 249.506 89.5413 249.366 90.2479C249.226 90.9546 249.156 91.4779 249.156 91.8179C249.156 92.3113 249.309 92.5579 249.616 92.5579C249.869 92.5579 250.133 92.3613 250.406 91.9679C250.686 91.5679 250.919 91.0513 251.106 90.4179C251.293 89.7846 251.386 89.1579 251.386 88.5379C251.386 88.2579 251.366 87.9879 251.326 87.7279C251.473 87.7146 251.579 87.7079 251.646 87.7079ZM258.741 89.1479C258.741 89.4546 258.674 89.9979 258.541 90.7779C258.414 91.5513 258.351 92.1146 258.351 92.4679C258.351 92.8213 258.394 93.0779 258.481 93.2379C258.567 93.3913 258.714 93.5246 258.921 93.6379C258.834 93.6446 258.711 93.6479 258.551 93.6479C258.097 93.6479 257.774 93.5646 257.581 93.3979C257.394 93.2246 257.301 92.9179 257.301 92.4779C257.301 92.2313 257.367 91.7346 257.501 90.9879C257.634 90.2346 257.701 89.6813 257.701 89.3279C257.701 88.8879 257.567 88.6679 257.301 88.6679C256.874 88.6679 256.431 89.0446 255.971 89.7979C255.517 90.5513 255.291 91.4579 255.291 92.5179C255.291 92.9379 255.311 93.2646 255.351 93.4979C255.177 93.5113 255.074 93.5179 255.041 93.5179C254.454 93.5179 254.161 93.2313 254.161 92.6579C254.161 92.5246 254.231 92.0113 254.371 91.1179C254.511 90.2246 254.581 89.5146 254.581 88.9879C254.581 88.4546 254.524 87.9646 254.411 87.5179C254.804 87.6713 255.077 87.8913 255.231 88.1779C255.391 88.4579 255.471 88.7813 255.471 89.1479C255.471 89.5079 255.431 89.9279 255.351 90.4079C255.571 89.6546 255.914 89.0213 256.381 88.5079C256.854 87.9879 257.294 87.7279 257.701 87.7279C258.394 87.7279 258.741 88.2013 258.741 89.1479ZM261.61 93.6479C261.23 93.5146 260.964 93.3113 260.81 93.0379C260.664 92.7579 260.59 92.4213 260.59 92.0279C260.59 91.6346 260.644 91.0713 260.75 90.3379C260.857 89.6046 260.91 89.0346 260.91 88.6279C260.91 88.2213 260.89 87.9079 260.85 87.6879C260.97 87.6746 261.067 87.6679 261.14 87.6679C261.44 87.6679 261.657 87.7346 261.79 87.8679C261.924 88.0013 261.99 88.2213 261.99 88.5279C261.99 88.6279 261.907 89.1546 261.74 90.1079C261.58 91.0546 261.497 91.8379 261.49 92.4579C261.49 93.0713 261.53 93.4679 261.61 93.6479ZM261.76 86.6779C261.2 86.6779 260.92 86.4879 260.92 86.1079C260.92 85.9746 260.97 85.7879 261.07 85.5479C261.217 85.5213 261.344 85.5079 261.45 85.5079C262.01 85.5079 262.29 85.6979 262.29 86.0779C262.29 86.2113 262.24 86.3979 262.14 86.6379C261.994 86.6646 261.867 86.6779 261.76 86.6779ZM266.743 88.0179C266.743 88.2979 266.69 88.4913 266.583 88.5979C266.477 88.7046 266.32 88.7579 266.113 88.7579H265.393C265.367 88.9313 265.297 89.3446 265.183 89.9979C264.957 91.2379 264.843 92.1746 264.843 92.8079C264.843 93.4413 264.89 93.8613 264.983 94.0679C264.603 93.9279 264.333 93.7179 264.173 93.4379C264.013 93.1513 263.933 92.8046 263.933 92.3979C263.933 91.9913 263.957 91.6079 264.003 91.2479C264.057 90.8813 264.13 90.4546 264.223 89.9679C264.317 89.4813 264.383 89.0913 264.423 88.7979C264.043 88.8513 263.67 88.9579 263.303 89.1179C263.29 89.0113 263.283 88.9146 263.283 88.8279C263.283 88.5079 263.39 88.2946 263.603 88.1879C263.817 88.0746 264.123 88.0179 264.523 88.0179C264.57 87.5246 264.593 87.1579 264.593 86.9179C264.593 86.6713 264.59 86.4746 264.583 86.3279C264.583 86.1813 264.583 86.0713 264.583 85.9979C264.89 86.0446 265.127 86.1813 265.293 86.4079C265.46 86.6279 265.543 86.9313 265.543 87.3179C265.543 87.5179 265.527 87.7613 265.493 88.0479C266.073 88.0479 266.483 87.9513 266.723 87.7579C266.737 87.8513 266.743 87.9379 266.743 88.0179ZM268.681 93.6479C268.301 93.5146 268.034 93.3113 267.881 93.0379C267.734 92.7579 267.661 92.4213 267.661 92.0279C267.661 91.6346 267.714 91.0713 267.821 90.3379C267.927 89.6046 267.981 89.0346 267.981 88.6279C267.981 88.2213 267.961 87.9079 267.921 87.6879C268.041 87.6746 268.137 87.6679 268.211 87.6679C268.511 87.6679 268.727 87.7346 268.861 87.8679C268.994 88.0013 269.061 88.2213 269.061 88.5279C269.061 88.6279 268.977 89.1546 268.811 90.1079C268.651 91.0546 268.567 91.8379 268.561 92.4579C268.561 93.0713 268.601 93.4679 268.681 93.6479ZM268.831 86.6779C268.271 86.6779 267.991 86.4879 267.991 86.1079C267.991 85.9746 268.041 85.7879 268.141 85.5479C268.287 85.5213 268.414 85.5079 268.521 85.5079C269.081 85.5079 269.361 85.6979 269.361 86.0779C269.361 86.2113 269.311 86.3979 269.211 86.6379C269.064 86.6646 268.937 86.6779 268.831 86.6779ZM273.184 88.2479C272.784 88.2479 272.444 88.4779 272.164 88.9379C271.89 89.3979 271.707 89.9379 271.614 90.5579H271.894C272.247 90.5579 272.554 90.5079 272.814 90.4079C273.074 90.3079 273.274 90.1779 273.414 90.0179C273.68 89.7113 273.814 89.3646 273.814 88.9779C273.814 88.7579 273.76 88.5813 273.654 88.4479C273.554 88.3146 273.397 88.2479 273.184 88.2479ZM274.594 92.2979C274.287 92.7979 273.95 93.1479 273.584 93.3479C273.217 93.5479 272.79 93.6479 272.304 93.6479C271.824 93.6479 271.404 93.4346 271.044 93.0079C270.684 92.5813 270.504 91.9813 270.504 91.2079C270.504 90.3279 270.74 89.5413 271.214 88.8479C271.447 88.5146 271.75 88.2446 272.124 88.0379C272.504 87.8313 272.92 87.7279 273.374 87.7279C274.374 87.7279 274.874 88.2113 274.874 89.1779C274.874 89.7579 274.647 90.2146 274.194 90.5479C273.747 90.8746 273.227 91.0379 272.634 91.0379C272.24 91.0379 271.887 91.0013 271.574 90.9279C271.567 90.9946 271.564 91.0979 271.564 91.2379C271.564 92.4179 271.914 93.0079 272.614 93.0079C273.274 93.0079 273.81 92.6813 274.224 92.0279C274.47 92.0613 274.594 92.1513 274.594 92.2979ZM278.103 88.2179C277.883 88.2179 277.683 88.2879 277.503 88.4279C277.33 88.5679 277.243 88.7613 277.243 89.0079C277.243 89.2479 277.323 89.4746 277.483 89.6879C277.65 89.9013 277.85 90.0913 278.083 90.2579C278.317 90.4246 278.553 90.5946 278.793 90.7679C279.353 91.1813 279.633 91.6246 279.633 92.0979C279.633 92.5713 279.443 92.9579 279.063 93.2579C278.683 93.5513 278.197 93.6979 277.603 93.6979C277.017 93.6979 276.56 93.5813 276.233 93.3479C275.913 93.1146 275.753 92.8413 275.753 92.5279C275.753 92.2079 275.833 91.9579 275.993 91.7779C276.153 91.5979 276.347 91.5079 276.573 91.5079C276.693 91.5079 276.807 91.5346 276.913 91.5879C276.767 91.7746 276.693 91.9946 276.693 92.2479C276.693 92.5013 276.77 92.7146 276.923 92.8879C277.083 93.0613 277.3 93.1479 277.573 93.1479C277.853 93.1479 278.09 93.0779 278.283 92.9379C278.477 92.7913 278.573 92.6079 278.573 92.3879C278.573 92.1679 278.517 91.9746 278.403 91.8079C278.29 91.6413 278.147 91.4979 277.973 91.3779C277.807 91.2579 277.623 91.1246 277.423 90.9779C277.223 90.8313 277.037 90.6879 276.863 90.5479C276.697 90.4013 276.557 90.2213 276.443 90.0079C276.33 89.7879 276.273 89.5479 276.273 89.2879C276.273 88.8146 276.453 88.4279 276.813 88.1279C277.173 87.8213 277.627 87.6679 278.173 87.6679C278.72 87.6679 279.12 87.7813 279.373 88.0079C279.627 88.2346 279.753 88.4913 279.753 88.7779C279.753 89.0579 279.683 89.2913 279.543 89.4779C279.403 89.6579 279.223 89.7479 279.003 89.7479C278.897 89.7479 278.773 89.7179 278.633 89.6579C278.807 89.4446 278.893 89.2146 278.893 88.9679C278.893 88.7213 278.817 88.5346 278.663 88.4079C278.517 88.2813 278.33 88.2179 278.103 88.2179ZM289.064 93.4979C289.037 93.5179 288.95 93.5446 288.804 93.5779C288.664 93.6179 288.53 93.6379 288.404 93.6379C288.284 93.6379 288.214 93.5879 288.194 93.4879C288.1 93.0746 287.99 92.4279 287.864 91.5479C287.737 90.6679 287.65 90.0946 287.604 89.8279C287.47 90.1279 287.187 90.7179 286.754 91.5979C286.327 92.4779 286.037 93.1113 285.884 93.4979C285.85 93.5246 285.777 93.5546 285.664 93.5879C285.557 93.6213 285.444 93.6379 285.324 93.6379C285.204 93.6379 285.134 93.5879 285.114 93.4879C285.014 93.0613 284.907 92.4246 284.794 91.5779C284.68 90.7246 284.56 89.9813 284.434 89.3479C284.307 88.7079 284.147 88.2246 283.954 87.8979C284.207 87.7246 284.417 87.6379 284.584 87.6379C284.757 87.6379 284.897 87.6779 285.004 87.7579C285.117 87.8313 285.207 87.9513 285.274 88.1179C285.347 88.2779 285.404 88.4579 285.444 88.6579C285.484 88.8513 285.517 89.1013 285.544 89.4079C285.57 89.7079 285.594 89.9979 285.614 90.2779C285.674 91.1713 285.737 91.8946 285.804 92.4479C286.57 90.6679 287.067 89.3513 287.294 88.4979C287.22 88.2846 287.134 88.0846 287.034 87.8979C287.287 87.7246 287.497 87.6379 287.664 87.6379C287.83 87.6379 287.967 87.6779 288.074 87.7579C288.18 87.8313 288.267 87.9513 288.334 88.1179C288.4 88.2779 288.454 88.4579 288.494 88.6579C288.54 88.8513 288.577 89.1013 288.604 89.4079C288.637 89.7079 288.664 89.9979 288.684 90.2779C288.737 91.0579 288.804 91.7813 288.884 92.4479C289.217 91.6679 289.47 91.0713 289.644 90.6579C289.817 90.2379 290.004 89.7046 290.204 89.0579C290.404 88.4113 290.507 87.8946 290.514 87.5079C290.927 87.7079 291.134 88.0313 291.134 88.4779C291.134 88.7779 291.014 89.1879 290.774 89.7079C290.54 90.2279 290.244 90.8513 289.884 91.5779C289.524 92.2979 289.25 92.9379 289.064 93.4979ZM293.319 93.6479C292.939 93.5146 292.673 93.3113 292.519 93.0379C292.373 92.7579 292.299 92.4213 292.299 92.0279C292.299 91.6346 292.353 91.0713 292.459 90.3379C292.566 89.6046 292.619 89.0346 292.619 88.6279C292.619 88.2213 292.599 87.9079 292.559 87.6879C292.679 87.6746 292.776 87.6679 292.849 87.6679C293.149 87.6679 293.366 87.7346 293.499 87.8679C293.633 88.0013 293.699 88.2213 293.699 88.5279C293.699 88.6279 293.616 89.1546 293.449 90.1079C293.289 91.0546 293.206 91.8379 293.199 92.4579C293.199 93.0713 293.239 93.4679 293.319 93.6479ZM293.469 86.6779C292.909 86.6779 292.629 86.4879 292.629 86.1079C292.629 85.9746 292.679 85.7879 292.779 85.5479C292.926 85.5213 293.053 85.5079 293.159 85.5079C293.719 85.5079 293.999 85.6979 293.999 86.0779C293.999 86.2113 293.949 86.3979 293.849 86.6379C293.703 86.6646 293.576 86.6779 293.469 86.6779ZM298.452 88.0179C298.452 88.2979 298.399 88.4913 298.292 88.5979C298.186 88.7046 298.029 88.7579 297.822 88.7579H297.102C297.076 88.9313 297.006 89.3446 296.892 89.9979C296.666 91.2379 296.552 92.1746 296.552 92.8079C296.552 93.4413 296.599 93.8613 296.692 94.0679C296.312 93.9279 296.042 93.7179 295.882 93.4379C295.722 93.1513 295.642 92.8046 295.642 92.3979C295.642 91.9913 295.666 91.6079 295.712 91.2479C295.766 90.8813 295.839 90.4546 295.932 89.9679C296.026 89.4813 296.092 89.0913 296.132 88.7979C295.752 88.8513 295.379 88.9579 295.012 89.1179C294.999 89.0113 294.992 88.9146 294.992 88.8279C294.992 88.5079 295.099 88.2946 295.312 88.1879C295.526 88.0746 295.832 88.0179 296.232 88.0179C296.279 87.5246 296.302 87.1579 296.302 86.9179C296.302 86.6713 296.299 86.4746 296.292 86.3279C296.292 86.1813 296.292 86.0713 296.292 85.9979C296.599 86.0446 296.836 86.1813 297.002 86.4079C297.169 86.6279 297.252 86.9313 297.252 87.3179C297.252 87.5179 297.236 87.7613 297.202 88.0479C297.782 88.0479 298.192 87.9513 298.432 87.7579C298.446 87.8513 298.452 87.9379 298.452 88.0179ZM300.33 90.4079C300.55 89.6546 300.886 89.0213 301.34 88.5079C301.8 87.9879 302.23 87.7279 302.63 87.7279C303.03 87.7279 303.313 87.8513 303.48 88.0979C303.646 88.3379 303.73 88.6679 303.73 89.0879C303.73 89.5013 303.663 90.0846 303.53 90.8379C303.403 91.5913 303.34 92.1413 303.34 92.4879C303.34 92.8279 303.383 93.0779 303.47 93.2379C303.556 93.3913 303.703 93.5246 303.91 93.6379C303.823 93.6446 303.7 93.6479 303.54 93.6479C303.113 93.6479 302.796 93.5613 302.59 93.3879C302.39 93.2079 302.29 92.9046 302.29 92.4779C302.29 92.2313 302.356 91.7346 302.49 90.9879C302.623 90.2346 302.69 89.6813 302.69 89.3279C302.69 88.8879 302.536 88.6679 302.23 88.6679C302.05 88.6679 301.85 88.7646 301.63 88.9579C301.41 89.1446 301.196 89.4013 300.99 89.7279C300.79 90.0479 300.62 90.4579 300.48 90.9579C300.346 91.4513 300.28 91.9413 300.28 92.4279C300.28 92.9079 300.3 93.2646 300.34 93.4979C300.18 93.5113 300.09 93.5179 300.07 93.5179C299.756 93.5179 299.523 93.4513 299.37 93.3179C299.223 93.1846 299.15 92.9779 299.15 92.6979C299.15 92.4113 299.21 91.8646 299.33 91.0579C299.683 88.5779 299.86 86.6946 299.86 85.4079C299.86 84.8279 299.82 84.4379 299.74 84.2379C300.126 84.3779 300.396 84.5846 300.55 84.8579C300.71 85.1313 300.79 85.5079 300.79 85.9879C300.79 86.3213 300.723 87.0213 300.59 88.0879C300.463 89.1546 300.376 89.9279 300.33 90.4079ZM311.091 93.6479C310.351 93.6479 309.728 93.3479 309.221 92.7479C308.715 92.1479 308.461 91.2746 308.461 90.1279C308.461 89.2813 308.598 88.5113 308.871 87.8179C309.145 87.1179 309.571 86.5479 310.151 86.1079C310.738 85.6613 311.398 85.4379 312.131 85.4379C312.865 85.4379 313.398 85.6179 313.731 85.9779C314.065 86.3313 314.231 86.7379 314.231 87.1979C314.231 87.6579 314.115 88.0279 313.881 88.3079C313.648 88.5813 313.345 88.7179 312.971 88.7179C312.851 88.7179 312.705 88.6913 312.531 88.6379C312.685 88.4779 312.818 88.2546 312.931 87.9679C313.051 87.6746 313.111 87.3813 313.111 87.0879C313.111 86.7946 313.031 86.5446 312.871 86.3379C312.718 86.1246 312.471 86.0179 312.131 86.0179C311.618 86.0179 311.158 86.2313 310.751 86.6579C310.351 87.0779 310.048 87.5979 309.841 88.2179C309.641 88.8313 309.541 89.4646 309.541 90.1179C309.541 91.0379 309.718 91.7279 310.071 92.1879C310.425 92.6413 310.881 92.8679 311.441 92.8679C311.815 92.8679 312.198 92.7546 312.591 92.5279C312.985 92.3013 313.308 91.9746 313.561 91.5479C313.661 91.5479 313.755 91.5779 313.841 91.6379C313.928 91.6979 313.971 91.7579 313.971 91.8179C313.598 92.5246 313.128 93.0146 312.561 93.2879C312.068 93.5279 311.578 93.6479 311.091 93.6479ZM316.937 89.5879C316.743 89.9213 316.593 90.2646 316.487 90.6179C316.387 90.9646 316.337 91.2979 316.337 91.6179C316.337 91.9379 316.407 92.2113 316.547 92.4379C316.693 92.6579 316.9 92.7679 317.167 92.7679C317.54 92.7679 317.89 92.5646 318.217 92.1579C318.543 91.7446 318.793 91.2479 318.967 90.6679C319.147 90.0813 319.237 89.5413 319.237 89.0479C319.237 88.5479 319.217 88.1379 319.177 87.8179C319.337 87.8046 319.437 87.7979 319.477 87.7979C320.043 87.7979 320.327 88.0879 320.327 88.6679C320.327 88.7946 320.247 89.3113 320.087 90.2179C319.927 91.1179 319.847 91.8413 319.847 92.3879C319.847 92.9279 319.95 93.4079 320.157 93.8279C319.737 93.7413 319.43 93.5579 319.237 93.2779C319.05 92.9913 318.957 92.5813 318.957 92.0479C318.957 91.9546 318.97 91.7746 318.997 91.5079C318.817 92.1413 318.5 92.6513 318.047 93.0379C317.593 93.4246 317.147 93.6179 316.707 93.6179C316.273 93.6179 315.923 93.4546 315.657 93.1279C315.39 92.7946 315.257 92.3379 315.257 91.7579C315.257 91.1713 315.363 90.6013 315.577 90.0479C315.797 89.4879 316.123 89.0046 316.557 88.5979C316.997 88.1913 317.487 87.9879 318.027 87.9879C318.26 87.9879 318.517 88.0346 318.797 88.1279C318.403 88.2279 318.043 88.4113 317.717 88.6779C317.39 88.9446 317.13 89.2479 316.937 89.5879ZM323.144 90.2479C323.384 89.3813 323.671 88.7446 324.004 88.3379C324.344 87.9246 324.658 87.7179 324.944 87.7179C325.238 87.7179 325.458 87.8279 325.604 88.0479C325.751 88.2613 325.824 88.5346 325.824 88.8679C325.824 89.2013 325.738 89.4913 325.564 89.7379C325.391 89.9779 325.138 90.0979 324.804 90.0979C324.698 90.0979 324.614 90.0913 324.554 90.0779C324.781 89.7513 324.894 89.4179 324.894 89.0779C324.894 88.8379 324.798 88.7179 324.604 88.7179C324.451 88.7179 324.288 88.8079 324.114 88.9879C323.941 89.1679 323.774 89.4179 323.614 89.7379C323.454 90.0579 323.321 90.4746 323.214 90.9879C323.108 91.5013 323.054 92.0546 323.054 92.6479C323.054 92.7146 323.071 92.9979 323.104 93.4979C322.931 93.5113 322.831 93.5179 322.804 93.5179C322.218 93.5179 321.924 93.2313 321.924 92.6579C321.924 92.5246 321.994 92.0113 322.134 91.1179C322.274 90.2246 322.344 89.5146 322.344 88.9879C322.344 88.4546 322.288 87.9646 322.174 87.5179C322.568 87.6713 322.841 87.8913 322.994 88.1779C323.154 88.4579 323.234 88.7879 323.234 89.1679C323.234 89.5413 323.204 89.9013 323.144 90.2479ZM327.293 91.4779C327.293 91.8579 327.366 92.1679 327.513 92.4079C327.66 92.6479 327.886 92.7679 328.193 92.7679C328.506 92.7679 328.79 92.6313 329.043 92.3579C329.303 92.0779 329.51 91.7046 329.663 91.2379C329.823 90.7646 329.96 90.2646 330.073 89.7379C330.193 89.2046 330.28 88.6379 330.333 88.0379C330.433 86.9246 330.483 86.0413 330.483 85.3879C330.483 84.7346 330.456 84.2479 330.403 83.9279C331.09 84.1479 331.433 84.8379 331.433 85.9979C331.433 86.4713 331.32 87.4246 331.093 88.8579C330.873 90.2913 330.763 91.3379 330.763 91.9979C330.763 92.6579 330.793 93.2179 330.853 93.6779C330.473 93.5513 330.213 93.3246 330.073 92.9979C329.933 92.6713 329.863 92.2546 329.863 91.7479C329.656 92.3213 329.35 92.7746 328.943 93.1079C328.536 93.4413 328.113 93.6079 327.673 93.6079C327.24 93.6079 326.886 93.4413 326.613 93.1079C326.346 92.7679 326.213 92.2713 326.213 91.6179C326.213 90.5313 326.496 89.6379 327.063 88.9379C327.636 88.2379 328.346 87.8879 329.193 87.8879C329.433 87.8879 329.69 87.9246 329.963 87.9979C329.51 88.0713 329.103 88.2379 328.743 88.4979C328.383 88.7513 328.103 89.0513 327.903 89.3979C327.496 90.1046 327.293 90.7979 327.293 91.4779ZM333.905 93.6479C333.525 93.5146 333.259 93.3113 333.105 93.0379C332.959 92.7579 332.885 92.4213 332.885 92.0279C332.885 91.6346 332.939 91.0713 333.045 90.3379C333.152 89.6046 333.205 89.0346 333.205 88.6279C333.205 88.2213 333.185 87.9079 333.145 87.6879C333.265 87.6746 333.362 87.6679 333.435 87.6679C333.735 87.6679 333.952 87.7346 334.085 87.8679C334.219 88.0013 334.285 88.2213 334.285 88.5279C334.285 88.6279 334.202 89.1546 334.035 90.1079C333.875 91.0546 333.792 91.8379 333.785 92.4579C333.785 93.0713 333.825 93.4679 333.905 93.6479ZM334.055 86.6779C333.495 86.6779 333.215 86.4879 333.215 86.1079C333.215 85.9746 333.265 85.7879 333.365 85.5479C333.512 85.5213 333.639 85.5079 333.745 85.5079C334.305 85.5079 334.585 85.6979 334.585 86.0779C334.585 86.2113 334.535 86.3979 334.435 86.6379C334.289 86.6646 334.162 86.6779 334.055 86.6779ZM339.618 90.2179C339.618 89.5646 339.535 89.0979 339.368 88.8179C339.208 88.5313 338.975 88.3879 338.668 88.3879C338.368 88.3879 338.065 88.5379 337.758 88.8379C337.451 89.1313 337.208 89.4979 337.028 89.9379C336.855 90.3713 336.768 90.8246 336.768 91.2979C336.768 91.7646 336.858 92.1713 337.038 92.5179C337.218 92.8579 337.491 93.0279 337.858 93.0279C338.378 93.0279 338.801 92.7213 339.128 92.1079C339.455 91.4946 339.618 90.8646 339.618 90.2179ZM336.718 89.8279C336.971 89.1079 337.311 88.5846 337.738 88.2579C338.171 87.9246 338.608 87.7579 339.048 87.7579C339.495 87.7579 339.865 87.9546 340.158 88.3479C340.451 88.7346 340.598 89.2613 340.598 89.9279C340.598 90.6613 340.458 91.3413 340.178 91.9679C339.865 92.6613 339.411 93.1446 338.818 93.4179C338.498 93.5713 338.145 93.6479 337.758 93.6479C337.218 93.6479 336.745 93.4246 336.338 92.9779C335.931 92.5246 335.728 91.8813 335.728 91.0479C335.728 90.2079 335.908 89.4813 336.268 88.8679C336.628 88.2546 337.118 87.8279 337.738 87.5879C337.871 87.5879 337.938 87.6546 337.938 87.7879C337.278 88.2213 336.871 88.9013 336.718 89.8279ZM347.781 93.6479C347.041 93.6479 346.417 93.3479 345.911 92.7479C345.404 92.1479 345.151 91.2746 345.151 90.1279C345.151 89.2813 345.287 88.5113 345.561 87.8179C345.834 87.1179 346.261 86.5479 346.841 86.1079C347.427 85.6613 348.087 85.4379 348.821 85.4379C349.554 85.4379 350.087 85.6179 350.421 85.9779C350.754 86.3313 350.921 86.7379 350.921 87.1979C350.921 87.6579 350.804 88.0279 350.571 88.3079C350.337 88.5813 350.034 88.7179 349.661 88.7179C349.541 88.7179 349.394 88.6913 349.221 88.6379C349.374 88.4779 349.507 88.2546 349.621 87.9679C349.741 87.6746 349.801 87.3813 349.801 87.0879C349.801 86.7946 349.721 86.5446 349.561 86.3379C349.407 86.1246 349.161 86.0179 348.821 86.0179C348.307 86.0179 347.847 86.2313 347.441 86.6579C347.041 87.0779 346.737 87.5979 346.531 88.2179C346.331 88.8313 346.231 89.4646 346.231 90.1179C346.231 91.0379 346.407 91.7279 346.761 92.1879C347.114 92.6413 347.571 92.8679 348.131 92.8679C348.504 92.8679 348.887 92.7546 349.281 92.5279C349.674 92.3013 349.997 91.9746 350.251 91.5479C350.351 91.5479 350.444 91.5779 350.531 91.6379C350.617 91.6979 350.661 91.7579 350.661 91.8179C350.287 92.5246 349.817 93.0146 349.251 93.2879C348.757 93.5279 348.267 93.6479 347.781 93.6479ZM353.626 89.5879C353.433 89.9213 353.283 90.2646 353.176 90.6179C353.076 90.9646 353.026 91.2979 353.026 91.6179C353.026 91.9379 353.096 92.2113 353.236 92.4379C353.383 92.6579 353.589 92.7679 353.856 92.7679C354.229 92.7679 354.579 92.5646 354.906 92.1579C355.233 91.7446 355.483 91.2479 355.656 90.6679C355.836 90.0813 355.926 89.5413 355.926 89.0479C355.926 88.5479 355.906 88.1379 355.866 87.8179C356.026 87.8046 356.126 87.7979 356.166 87.7979C356.733 87.7979 357.016 88.0879 357.016 88.6679C357.016 88.7946 356.936 89.3113 356.776 90.2179C356.616 91.1179 356.536 91.8413 356.536 92.3879C356.536 92.9279 356.639 93.4079 356.846 93.8279C356.426 93.7413 356.119 93.5579 355.926 93.2779C355.739 92.9913 355.646 92.5813 355.646 92.0479C355.646 91.9546 355.659 91.7746 355.686 91.5079C355.506 92.1413 355.189 92.6513 354.736 93.0379C354.283 93.4246 353.836 93.6179 353.396 93.6179C352.963 93.6179 352.613 93.4546 352.346 93.1279C352.079 92.7946 351.946 92.3379 351.946 91.7579C351.946 91.1713 352.053 90.6013 352.266 90.0479C352.486 89.4879 352.813 89.0046 353.246 88.5979C353.686 88.1913 354.176 87.9879 354.716 87.9879C354.949 87.9879 355.206 88.0346 355.486 88.1279C355.093 88.2279 354.733 88.4113 354.406 88.6779C354.079 88.9446 353.819 89.2479 353.626 89.5879ZM359.834 90.2479C360.074 89.3813 360.36 88.7446 360.694 88.3379C361.034 87.9246 361.347 87.7179 361.634 87.7179C361.927 87.7179 362.147 87.8279 362.294 88.0479C362.44 88.2613 362.514 88.5346 362.514 88.8679C362.514 89.2013 362.427 89.4913 362.254 89.7379C362.08 89.9779 361.827 90.0979 361.494 90.0979C361.387 90.0979 361.304 90.0913 361.244 90.0779C361.47 89.7513 361.584 89.4179 361.584 89.0779C361.584 88.8379 361.487 88.7179 361.294 88.7179C361.14 88.7179 360.977 88.8079 360.804 88.9879C360.63 89.1679 360.464 89.4179 360.304 89.7379C360.144 90.0579 360.01 90.4746 359.904 90.9879C359.797 91.5013 359.744 92.0546 359.744 92.6479C359.744 92.7146 359.76 92.9979 359.794 93.4979C359.62 93.5113 359.52 93.5179 359.494 93.5179C358.907 93.5179 358.614 93.2313 358.614 92.6579C358.614 92.5246 358.684 92.0113 358.824 91.1179C358.964 90.2246 359.034 89.5146 359.034 88.9879C359.034 88.4546 358.977 87.9646 358.864 87.5179C359.257 87.6713 359.53 87.8913 359.684 88.1779C359.844 88.4579 359.924 88.7879 359.924 89.1679C359.924 89.5413 359.894 89.9013 359.834 90.2479ZM365.723 88.2479C365.323 88.2479 364.983 88.4779 364.703 88.9379C364.429 89.3979 364.246 89.9379 364.153 90.5579H364.433C364.786 90.5579 365.093 90.5079 365.353 90.4079C365.613 90.3079 365.813 90.1779 365.953 90.0179C366.219 89.7113 366.353 89.3646 366.353 88.9779C366.353 88.7579 366.299 88.5813 366.193 88.4479C366.093 88.3146 365.936 88.2479 365.723 88.2479ZM367.133 92.2979C366.826 92.7979 366.489 93.1479 366.123 93.3479C365.756 93.5479 365.329 93.6479 364.843 93.6479C364.363 93.6479 363.943 93.4346 363.583 93.0079C363.223 92.5813 363.043 91.9813 363.043 91.2079C363.043 90.3279 363.279 89.5413 363.753 88.8479C363.986 88.5146 364.289 88.2446 364.663 88.0379C365.043 87.8313 365.459 87.7279 365.913 87.7279C366.913 87.7279 367.413 88.2113 367.413 89.1779C367.413 89.7579 367.186 90.2146 366.733 90.5479C366.286 90.8746 365.766 91.0379 365.173 91.0379C364.779 91.0379 364.426 91.0013 364.113 90.9279C364.106 90.9946 364.103 91.0979 364.103 91.2379C364.103 92.4179 364.453 93.0079 365.153 93.0079C365.813 93.0079 366.349 92.6813 366.763 92.0279C367.009 92.0613 367.133 92.1513 367.133 92.2979Z" fill="#65000D"/>
</svg>
