<svg width="137" height="37" viewBox="0 0 137 37" fill="none" xmlns="http://www.w3.org/2000/svg">
<path d="M29.8117 -0.0083313C26.343 -0.0083313 23.2172 1.49992 21 3.91457C18.7816 1.49992 15.6558 -0.0083313 12.1871 -0.0083313C5.45687 -0.0083313 0 5.65336 0 12.6364C0 13.14 0.0363469 13.6338 0.0908671 14.1216C0.272601 17.092 1.36664 20.356 3.69526 23.7062C5.49443 26.2944 8.22529 29.0366 11.276 31.3809C14.403 33.7846 17.8633 35.771 20.9988 36.7405C24.1343 35.771 27.5945 33.7846 30.7216 31.3809C33.7711 29.0354 36.5031 26.2932 38.3023 23.7062C40.6309 20.356 41.725 17.092 41.9067 14.1216C41.9624 13.6338 41.9976 13.14 41.9976 12.6364C41.9988 5.65336 36.5431 -0.0083313 29.8117 -0.0083313Z" fill="#FF0023"/>
<path d="M42 12.6352C42 13.14 41.9637 13.6338 41.9079 14.1204C41.7262 17.0908 40.6321 20.3548 38.3047 23.705C36.5044 26.2944 33.7735 29.0354 30.724 31.3809C27.597 33.7846 24.1367 35.7685 21.0012 36.7392V3.91578C23.2172 1.50113 26.3418 -0.0083313 29.8117 -0.0083313C36.5419 -0.0083313 41.9988 5.65214 41.9988 12.6352H42Z" fill="#D60000"/>
<path d="M34.418 2.13575C34.853 3.41588 34.9439 5.80019 32.9084 7.77438C29.5997 10.8819 26.784 12.2482 26.3079 12.6474C25.1593 13.6084 25.988 14.7817 27.6406 13.9918C29.4131 13.106 31.0281 12.378 30.6004 13.447C30.0334 14.9067 27.4273 18.1016 24.9739 20.3658C23.9017 21.3753 24.0216 21.9711 24.2845 22.2125C24.7873 22.676 26.4387 21.6155 27.8162 20.2396C28.8497 19.321 31.4182 16.0364 31.7381 16.3336C31.8762 16.4683 31.6266 16.9695 31.6254 16.9695C30.6973 18.7896 28.1506 21.6981 26.0983 23.8203C25.0139 24.9609 25.1399 25.5748 25.4137 25.803C25.9371 26.241 27.5897 24.9815 29.0121 23.4878C30.1158 22.5086 33.3252 17.5216 33.696 17.9644C33.696 17.9644 33.8656 18.0166 33.5954 18.5444C32.6068 20.4179 31.1626 22.3484 29.1999 24.8541C28.1422 26.1718 28.296 26.7955 28.5892 26.9982C29.149 27.3877 30.7906 25.877 32.1658 24.1552C33.2259 22.9855 35.5763 18.5493 35.9688 19.0092C36.0852 19.1402 35.7847 19.7227 35.7835 19.7227C34.8627 21.4772 34.8954 21.3231 33.2852 23.9271C32.402 25.2909 32.5874 25.8515 32.8709 26.0007C33.4137 26.2883 35.0384 24.3954 36.2536 22.6797C38.2672 19.8355 40.8478 12.8585 40.7703 7.09246C39.3358 3.7532 36.6182 1.30094 32.8697 0.394531C33.2125 0.528004 34.034 0.998801 34.4205 2.13696L34.418 2.13575Z" fill="white"/>
<path d="M12.9758 26.9739C14.6769 22.5486 16.8771 20.7698 17.1969 20.2383C17.5022 19.7323 17.4647 19.3319 17.2442 19.1705C16.7862 18.8332 16.1041 18.8538 15.3444 19.5637C13.916 20.8996 13.1079 22.3132 13.0582 21.1629C12.9746 19.5989 14.0347 15.6129 15.3384 12.5369C15.8993 11.1743 15.5455 10.6804 15.2075 10.57C14.5593 10.3552 13.4895 12.003 12.8014 13.8243C12.238 15.0875 11.2481 19.1414 10.835 19.0019C10.6545 18.9351 10.6751 18.3758 10.6763 18.377C10.7732 16.3348 11.8975 12.6352 12.8934 9.85411C13.412 8.3677 13.0449 7.85929 12.702 7.76465C12.0453 7.58142 11.0579 9.41122 10.3758 11.3587C9.77246 12.7068 8.96192 18.5408 8.44216 18.2908C8.44216 18.2908 8.22166 18.1707 8.25195 17.5786C8.38158 15.4636 8.88559 13.2844 9.64403 10.1902C10.0657 8.55214 9.66826 8.04737 9.31812 7.98427C8.64813 7.8605 7.77338 9.91356 7.22939 12.0503C6.74355 13.5537 6.42733 18.5663 5.88092 18.309C5.72221 18.2374 5.75492 17.5822 5.75613 17.5834C5.87365 15.6044 5.90636 15.7585 6.30375 12.7214C6.54728 11.1148 6.14746 10.6792 5.82761 10.661C5.21456 10.6222 4.59666 12.6667 4.29014 14.7477C3.88305 16.0388 3.91092 20.5659 4.73842 25.0992C6.39705 27.3464 8.64934 29.5256 11.1585 31.4537C12.3846 32.3965 13.647 33.2362 15.067 33.98C14.3158 33.3927 11.5316 30.7305 12.9758 26.9751V26.9739Z" fill="white"/>
<path d="M54.3162 16.1661H55.0842C55.5215 16.1661 55.8735 16.0594 56.1402 15.8461C56.4175 15.6221 56.5562 15.3074 56.5562 14.9021C56.5562 14.4967 56.4282 14.1874 56.1722 13.9741C55.9269 13.7501 55.5642 13.6381 55.0842 13.6381C54.9135 13.6381 54.7695 13.6434 54.6522 13.6541C54.5455 13.6541 54.4335 13.6647 54.3162 13.6861V16.1661ZM55.2602 18.3581H51.5322V12.5821C51.5322 12.3581 51.5962 12.1874 51.7242 12.0701C51.8522 11.9421 52.0175 11.8407 52.2202 11.7661C52.5829 11.6381 53.0149 11.5474 53.5162 11.4941C54.0175 11.4301 54.4655 11.3981 54.8602 11.3981C56.3215 11.3981 57.4415 11.7127 58.2202 12.3421C59.0095 12.9714 59.4042 13.8247 59.4042 14.9021C59.4042 15.5954 59.2335 16.2034 58.8922 16.7261C58.5509 17.2381 58.0709 17.6381 57.4522 17.9261C56.8335 18.2141 56.1029 18.3581 55.2602 18.3581ZM51.5322 17.1421H54.3322V21.3501C54.2149 21.3821 54.0335 21.4141 53.7882 21.4461C53.5429 21.4781 53.2922 21.4941 53.0362 21.4941C52.4815 21.4941 52.0922 21.3981 51.8682 21.2061C51.6442 21.0034 51.5322 20.6567 51.5322 20.1661V17.1421ZM60.6211 18.2781V17.2221H63.3411V18.2781C63.3411 18.7047 63.4477 19.0141 63.6611 19.2061C63.8851 19.3981 64.1944 19.4941 64.5891 19.4941C64.8344 19.4941 65.0371 19.4727 65.1971 19.4301C65.3571 19.3874 65.4744 19.3447 65.5491 19.3021V17.2221H68.2691V19.7021C68.2691 19.9687 68.2104 20.2034 68.0931 20.4061C67.9864 20.5981 67.8211 20.7634 67.5971 20.9021C67.2237 21.1367 66.7757 21.3127 66.2531 21.4301C65.7411 21.5581 65.1811 21.6221 64.5731 21.6221C63.8051 21.6221 63.1224 21.5101 62.5251 21.2861C61.9277 21.0514 61.4584 20.6887 61.1171 20.1981C60.7864 19.7074 60.6211 19.0674 60.6211 18.2781ZM68.2691 17.9101H65.5491V13.6221C65.6664 13.5901 65.8317 13.5581 66.0451 13.5261C66.2691 13.4941 66.5091 13.4781 66.7651 13.4781C67.2984 13.4781 67.6824 13.5687 67.9171 13.7501C68.1517 13.9207 68.2691 14.2567 68.2691 14.7581V17.9101ZM63.3411 17.9101H60.6211V13.6221C60.7384 13.5901 60.9037 13.5581 61.1171 13.5261C61.3411 13.4941 61.5811 13.4781 61.8371 13.4781C62.3704 13.4781 62.7544 13.5687 62.9891 13.7501C63.2237 13.9207 63.3411 14.2567 63.3411 14.7581V17.9101ZM70.0136 17.1421H72.7336V21.3501C72.6162 21.3821 72.4456 21.4141 72.2216 21.4461C72.0082 21.4781 71.7736 21.4941 71.5176 21.4941C70.9949 21.4941 70.6109 21.4034 70.3656 21.2221C70.1309 21.0407 70.0136 20.7047 70.0136 20.2141V17.1421ZM72.7336 18.5661H70.0136V10.9341C70.1309 10.9021 70.2962 10.8701 70.5096 10.8381C70.7336 10.8061 70.9736 10.7901 71.2296 10.7901C71.7629 10.7901 72.1469 10.8807 72.3816 11.0621C72.6162 11.2327 72.7336 11.5687 72.7336 12.0701V18.5661ZM81.0404 19.0461C81.0404 19.8567 80.7311 20.4914 80.1124 20.9501C79.5044 21.4087 78.6138 21.6381 77.4404 21.6381C76.5338 21.6381 75.7871 21.5101 75.2004 21.2541C74.6244 20.9874 74.3364 20.5767 74.3364 20.0221C74.3364 19.7661 74.3898 19.5474 74.4964 19.3661C74.6031 19.1847 74.7311 19.0407 74.8804 18.9341C75.1898 19.1047 75.5418 19.2594 75.9364 19.3981C76.3418 19.5261 76.8058 19.5901 77.3284 19.5901C78.0111 19.5901 78.3524 19.4141 78.3524 19.0621C78.3524 18.9127 78.2884 18.7954 78.1604 18.7101C78.0324 18.6247 77.8191 18.5554 77.5204 18.5021L77.0404 18.4061C76.1231 18.2247 75.4351 17.9367 74.9764 17.5421C74.5178 17.1474 74.2884 16.5927 74.2884 15.8781C74.2884 15.0781 74.6138 14.4541 75.2644 14.0061C75.9151 13.5581 76.7631 13.3341 77.8084 13.3341C78.3311 13.3341 78.8058 13.3874 79.2324 13.4941C79.6698 13.5901 80.0164 13.7501 80.2724 13.9741C80.5284 14.1874 80.6564 14.4647 80.6564 14.8061C80.6564 15.0407 80.6084 15.2487 80.5124 15.4301C80.4271 15.6114 80.3151 15.7607 80.1764 15.8781C80.0591 15.8034 79.8724 15.7287 79.6164 15.6541C79.3711 15.5794 79.1044 15.5154 78.8164 15.4621C78.5284 15.4087 78.2724 15.3821 78.0484 15.3821C77.6964 15.3821 77.4244 15.4247 77.2324 15.5101C77.0404 15.5847 76.9444 15.7074 76.9444 15.8781C76.9444 15.9954 76.9978 16.0914 77.1044 16.1661C77.2111 16.2407 77.4138 16.3101 77.7124 16.3741L78.2084 16.4861C79.2324 16.7207 79.9578 17.0461 80.3844 17.4621C80.8218 17.8674 81.0404 18.3954 81.0404 19.0461ZM83.7456 18.6941L83.6496 16.9021L87.3456 16.2941C87.3242 16.0807 87.2176 15.8674 87.0256 15.6541C86.8336 15.4407 86.5349 15.3341 86.1296 15.3341C85.7029 15.3341 85.3456 15.4727 85.0576 15.7501C84.7802 16.0274 84.6309 16.4221 84.6096 16.9341L84.7056 18.2781C84.8122 18.7687 85.0522 19.1101 85.4256 19.3021C85.8096 19.4941 86.2362 19.5901 86.7056 19.5901C87.1536 19.5901 87.5802 19.5314 87.9856 19.4141C88.3909 19.2967 88.7162 19.1687 88.9616 19.0301C89.1322 19.1367 89.2762 19.2861 89.3936 19.4781C89.5109 19.6701 89.5696 19.8727 89.5696 20.0861C89.5696 20.4381 89.4362 20.7314 89.1696 20.9661C88.9136 21.1901 88.5562 21.3554 88.0976 21.4621C87.6389 21.5687 87.1109 21.6221 86.5136 21.6221C85.6816 21.6221 84.9296 21.4674 84.2576 21.1581C83.5962 20.8381 83.0682 20.3634 82.6736 19.7341C82.2896 19.1047 82.0976 18.3154 82.0976 17.3661C82.0976 16.6621 82.2096 16.0541 82.4336 15.5421C82.6682 15.0301 82.9776 14.6141 83.3616 14.2941C83.7456 13.9741 84.1722 13.7394 84.6416 13.5901C85.1216 13.4301 85.6122 13.3501 86.1136 13.3501C86.8709 13.3501 87.5322 13.4994 88.0976 13.7981C88.6629 14.0861 89.1056 14.4861 89.4256 14.9981C89.7456 15.4994 89.9056 16.0807 89.9056 16.7421C89.9056 17.1047 89.8042 17.3821 89.6016 17.5741C89.3989 17.7661 89.1162 17.8887 88.7536 17.9421L83.7456 18.6941Z" fill="#D60000"/>
<path d="M103.026 16.6621V20.0541C103.026 20.3101 102.967 20.5127 102.85 20.6621C102.743 20.8007 102.567 20.9341 102.322 21.0621C102.045 21.2114 101.645 21.3394 101.122 21.4461C100.61 21.5527 100.098 21.6061 99.5859 21.6061C98.5726 21.6061 97.6659 21.4301 96.8659 21.0781C96.0766 20.7154 95.4526 20.1607 94.9939 19.4141C94.5353 18.6567 94.3059 17.6914 94.3059 16.5181C94.3059 15.3874 94.5406 14.4434 95.0099 13.6861C95.4793 12.9287 96.1033 12.3581 96.8819 11.9741C97.6713 11.5901 98.5406 11.3981 99.4899 11.3981C100.119 11.3981 100.669 11.4674 101.138 11.6061C101.618 11.7447 101.986 11.9261 102.242 12.1501C102.509 12.3741 102.642 12.6194 102.642 12.8861C102.642 13.0781 102.589 13.2541 102.482 13.4141C102.375 13.5741 102.247 13.6967 102.098 13.7821C101.821 13.6007 101.479 13.4301 101.074 13.2701C100.679 13.1101 100.194 13.0301 99.6179 13.0301C98.9993 13.0301 98.4393 13.1687 97.9379 13.4461C97.4473 13.7127 97.0579 14.1074 96.7699 14.6301C96.4926 15.1421 96.3539 15.7714 96.3539 16.5181C96.3539 17.3074 96.4926 17.9581 96.7699 18.4701C97.0579 18.9821 97.4473 19.3661 97.9379 19.6221C98.4286 19.8674 98.9886 19.9901 99.6179 19.9901C99.9273 19.9901 100.215 19.9634 100.482 19.9101C100.749 19.8461 100.957 19.7767 101.106 19.7021V17.4141H99.0099C98.9673 17.3287 98.9193 17.2167 98.8659 17.0781C98.8233 16.9394 98.8019 16.7954 98.8019 16.6461C98.8019 16.3687 98.8659 16.1661 98.9939 16.0381C99.1219 15.8994 99.2926 15.8301 99.5059 15.8301H102.194C102.45 15.8301 102.653 15.9047 102.802 16.0541C102.951 16.2034 103.026 16.4061 103.026 16.6621ZM105.032 18.4861V17.2061H106.984V18.4541C106.984 19.0194 107.128 19.4301 107.416 19.6861C107.714 19.9314 108.13 20.0541 108.664 20.0541C109.005 20.0541 109.293 20.0221 109.528 19.9581C109.762 19.8834 109.944 19.8087 110.072 19.7341V17.2061H112.008V19.8941C112.008 20.1394 111.965 20.3421 111.88 20.5021C111.805 20.6621 111.656 20.8114 111.432 20.9501C111.133 21.1314 110.744 21.2807 110.264 21.3981C109.794 21.5261 109.256 21.5901 108.648 21.5901C107.912 21.5901 107.272 21.4834 106.728 21.2701C106.184 21.0567 105.762 20.7207 105.464 20.2621C105.176 19.7927 105.032 19.2007 105.032 18.4861ZM112.008 17.9741H110.072V13.8301C110.157 13.7981 110.28 13.7714 110.44 13.7501C110.6 13.7181 110.77 13.7021 110.952 13.7021C111.325 13.7021 111.592 13.7661 111.752 13.8941C111.922 14.0221 112.008 14.2621 112.008 14.6141V17.9741ZM106.984 17.9741H105.032V13.8301C105.117 13.7981 105.24 13.7714 105.4 13.7501C105.56 13.7181 105.736 13.7021 105.928 13.7021C106.29 13.7021 106.557 13.7661 106.728 13.8941C106.898 14.0221 106.984 14.2621 106.984 14.6141V17.9741ZM117.039 20.1181C117.369 20.1181 117.663 20.0861 117.919 20.0221C118.175 19.9581 118.361 19.8887 118.479 19.8141V17.9741L116.879 18.1181C116.441 18.1607 116.105 18.2621 115.871 18.4221C115.647 18.5714 115.535 18.8007 115.535 19.1101C115.535 19.4194 115.657 19.6647 115.903 19.8461C116.148 20.0274 116.527 20.1181 117.039 20.1181ZM116.975 13.5741C118.009 13.5741 118.831 13.7981 119.439 14.2461C120.057 14.6834 120.367 15.3767 120.367 16.3261V20.0221C120.367 20.2781 120.308 20.4807 120.191 20.6301C120.073 20.7687 119.919 20.8967 119.727 21.0141C119.428 21.1847 119.049 21.3234 118.591 21.4301C118.132 21.5474 117.615 21.6061 117.039 21.6061C115.983 21.6061 115.151 21.4034 114.543 20.9981C113.935 20.5821 113.631 19.9687 113.631 19.1581C113.631 18.4434 113.855 17.8994 114.303 17.5261C114.761 17.1421 115.423 16.9074 116.287 16.8221L118.479 16.5981V16.3101C118.479 15.8727 118.329 15.5581 118.031 15.3661C117.732 15.1741 117.316 15.0781 116.783 15.0781C116.367 15.0781 115.961 15.1314 115.567 15.2381C115.172 15.3447 114.82 15.4727 114.511 15.6221C114.404 15.5367 114.308 15.4247 114.223 15.2861C114.148 15.1367 114.111 14.9821 114.111 14.8221C114.111 14.4381 114.319 14.1554 114.735 13.9741C115.033 13.8461 115.38 13.7501 115.775 13.6861C116.169 13.6114 116.569 13.5741 116.975 13.5741ZM124.343 15.5901V17.7981H122.391V15.4461C122.391 15.1794 122.455 14.9554 122.583 14.7741C122.711 14.5821 122.893 14.4114 123.127 14.2621C123.447 14.0594 123.853 13.8941 124.343 13.7661C124.834 13.6381 125.362 13.5741 125.927 13.5741C126.919 13.5741 127.415 13.8834 127.415 14.5021C127.415 14.6407 127.394 14.7741 127.351 14.9021C127.309 15.0301 127.255 15.1367 127.191 15.2221C127.085 15.2007 126.951 15.1847 126.791 15.1741C126.631 15.1527 126.466 15.1421 126.295 15.1421C125.901 15.1421 125.533 15.1847 125.191 15.2701C124.861 15.3554 124.578 15.4621 124.343 15.5901ZM122.391 17.1421L124.343 17.2381V21.3341C124.258 21.3661 124.135 21.3927 123.975 21.4141C123.815 21.4461 123.645 21.4621 123.463 21.4621C123.101 21.4621 122.829 21.3981 122.647 21.2701C122.477 21.1421 122.391 20.9074 122.391 20.5661V17.1421ZM133.509 19.7181V14.6781H135.445V19.9261C135.445 20.1501 135.392 20.3421 135.285 20.5021C135.189 20.6514 135.029 20.7954 134.805 20.9341C134.549 21.1047 134.202 21.2541 133.765 21.3821C133.328 21.5207 132.826 21.5901 132.261 21.5901C131.418 21.5901 130.688 21.4514 130.069 21.1741C129.45 20.8861 128.97 20.4487 128.629 19.8621C128.288 19.2647 128.117 18.5127 128.117 17.6061C128.117 16.6781 128.288 15.9207 128.629 15.3341C128.97 14.7367 129.434 14.2941 130.021 14.0061C130.608 13.7181 131.258 13.5741 131.973 13.5741C132.368 13.5741 132.725 13.6221 133.045 13.7181C133.376 13.8141 133.642 13.9314 133.845 14.0701V15.7341C133.674 15.5741 133.45 15.4354 133.173 15.3181C132.896 15.1901 132.576 15.1261 132.213 15.1261C131.808 15.1261 131.445 15.2114 131.125 15.3821C130.805 15.5527 130.549 15.8247 130.357 16.1981C130.176 16.5607 130.085 17.0407 130.085 17.6381C130.085 18.4701 130.277 19.0781 130.661 19.4621C131.056 19.8461 131.584 20.0381 132.245 20.0381C132.533 20.0381 132.778 20.0061 132.981 19.9421C133.184 19.8781 133.36 19.8034 133.509 19.7181ZM135.445 15.0781L133.493 15.0941V10.9661C133.578 10.9447 133.701 10.9181 133.861 10.8861C134.021 10.8541 134.192 10.8381 134.373 10.8381C134.746 10.8381 135.018 10.9074 135.189 11.0461C135.36 11.1741 135.445 11.4034 135.445 11.7341V15.0781Z" fill="white"/>
</svg>
