<svg width="87" height="33" viewBox="0 0 87 33" fill="none" xmlns="http://www.w3.org/2000/svg">
<path d="M4.31619 14.1661H5.08419C5.52152 14.1661 5.87352 14.0594 6.14019 13.8461C6.41752 13.6221 6.55619 13.3074 6.55619 12.9021C6.55619 12.4967 6.42819 12.1874 6.17219 11.9741C5.92685 11.7501 5.56419 11.6381 5.08419 11.6381C4.91352 11.6381 4.76952 11.6434 4.65219 11.6541C4.54552 11.6541 4.43352 11.6647 4.31619 11.6861V14.1661ZM5.26019 16.3581H1.53219V10.5821C1.53219 10.3581 1.59619 10.1874 1.72419 10.0701C1.85219 9.94206 2.01752 9.84072 2.22019 9.76606C2.58285 9.63806 3.01485 9.54739 3.51619 9.49406C4.01752 9.43006 4.46552 9.39806 4.86019 9.39806C6.32152 9.39806 7.44152 9.71272 8.22019 10.3421C9.00952 10.9714 9.40419 11.8247 9.40419 12.9021C9.40419 13.5954 9.23352 14.2034 8.89219 14.7261C8.55085 15.2381 8.07085 15.6381 7.45219 15.9261C6.83352 16.2141 6.10285 16.3581 5.26019 16.3581ZM1.53219 15.1421H4.33219V19.3501C4.21485 19.3821 4.03352 19.4141 3.78819 19.4461C3.54285 19.4781 3.29219 19.4941 3.03619 19.4941C2.48152 19.4941 2.09219 19.3981 1.86819 19.2061C1.64419 19.0034 1.53219 18.6567 1.53219 18.1661V15.1421ZM10.6211 16.2781V15.2221H13.3411V16.2781C13.3411 16.7047 13.4477 17.0141 13.6611 17.2061C13.8851 17.3981 14.1944 17.4941 14.5891 17.4941C14.8344 17.4941 15.0371 17.4727 15.1971 17.4301C15.3571 17.3874 15.4744 17.3447 15.5491 17.3021V15.2221H18.2691V17.7021C18.2691 17.9687 18.2104 18.2034 18.0931 18.4061C17.9864 18.5981 17.8211 18.7634 17.5971 18.9021C17.2237 19.1367 16.7757 19.3127 16.2531 19.4301C15.7411 19.5581 15.1811 19.6221 14.5731 19.6221C13.8051 19.6221 13.1224 19.5101 12.5251 19.2861C11.9277 19.0514 11.4584 18.6887 11.1171 18.1981C10.7864 17.7074 10.6211 17.0674 10.6211 16.2781ZM18.2691 15.9101H15.5491V11.6221C15.6664 11.5901 15.8317 11.5581 16.0451 11.5261C16.2691 11.4941 16.5091 11.4781 16.7651 11.4781C17.2984 11.4781 17.6824 11.5687 17.9171 11.7501C18.1517 11.9207 18.2691 12.2567 18.2691 12.7581V15.9101ZM13.3411 15.9101H10.6211V11.6221C10.7384 11.5901 10.9037 11.5581 11.1171 11.5261C11.3411 11.4941 11.5811 11.4781 11.8371 11.4781C12.3704 11.4781 12.7544 11.5687 12.9891 11.7501C13.2237 11.9207 13.3411 12.2567 13.3411 12.7581V15.9101ZM20.0136 15.1421H22.7336V19.3501C22.6162 19.3821 22.4456 19.4141 22.2216 19.4461C22.0082 19.4781 21.7736 19.4941 21.5176 19.4941C20.9949 19.4941 20.6109 19.4034 20.3656 19.2221C20.1309 19.0407 20.0136 18.7047 20.0136 18.2141V15.1421ZM22.7336 16.5661H20.0136V8.93406C20.1309 8.90206 20.2962 8.87006 20.5096 8.83806C20.7336 8.80606 20.9736 8.79006 21.2296 8.79006C21.7629 8.79006 22.1469 8.88072 22.3816 9.06206C22.6162 9.23272 22.7336 9.56872 22.7336 10.0701V16.5661ZM31.0404 17.0461C31.0404 17.8567 30.7311 18.4914 30.1124 18.9501C29.5044 19.4087 28.6138 19.6381 27.4404 19.6381C26.5338 19.6381 25.7871 19.5101 25.2004 19.2541C24.6244 18.9874 24.3364 18.5767 24.3364 18.0221C24.3364 17.7661 24.3898 17.5474 24.4964 17.3661C24.6031 17.1847 24.7311 17.0407 24.8804 16.9341C25.1898 17.1047 25.5418 17.2594 25.9364 17.3981C26.3418 17.5261 26.8058 17.5901 27.3284 17.5901C28.0111 17.5901 28.3524 17.4141 28.3524 17.0621C28.3524 16.9127 28.2884 16.7954 28.1604 16.7101C28.0324 16.6247 27.8191 16.5554 27.5204 16.5021L27.0404 16.4061C26.1231 16.2247 25.4351 15.9367 24.9764 15.5421C24.5178 15.1474 24.2884 14.5927 24.2884 13.8781C24.2884 13.0781 24.6138 12.4541 25.2644 12.0061C25.9151 11.5581 26.7631 11.3341 27.8084 11.3341C28.3311 11.3341 28.8058 11.3874 29.2324 11.4941C29.6698 11.5901 30.0164 11.7501 30.2724 11.9741C30.5284 12.1874 30.6564 12.4647 30.6564 12.8061C30.6564 13.0407 30.6084 13.2487 30.5124 13.4301C30.4271 13.6114 30.3151 13.7607 30.1764 13.8781C30.0591 13.8034 29.8724 13.7287 29.6164 13.6541C29.3711 13.5794 29.1044 13.5154 28.8164 13.4621C28.5284 13.4087 28.2724 13.3821 28.0484 13.3821C27.6964 13.3821 27.4244 13.4247 27.2324 13.5101C27.0404 13.5847 26.9444 13.7074 26.9444 13.8781C26.9444 13.9954 26.9978 14.0914 27.1044 14.1661C27.2111 14.2407 27.4138 14.3101 27.7124 14.3741L28.2084 14.4861C29.2324 14.7207 29.9578 15.0461 30.3844 15.4621C30.8218 15.8674 31.0404 16.3954 31.0404 17.0461ZM33.7456 16.6941L33.6496 14.9021L37.3456 14.2941C37.3242 14.0807 37.2176 13.8674 37.0256 13.6541C36.8336 13.4407 36.5349 13.3341 36.1296 13.3341C35.7029 13.3341 35.3456 13.4727 35.0576 13.7501C34.7802 14.0274 34.6309 14.4221 34.6096 14.9341L34.7056 16.2781C34.8122 16.7687 35.0522 17.1101 35.4256 17.3021C35.8096 17.4941 36.2362 17.5901 36.7056 17.5901C37.1536 17.5901 37.5802 17.5314 37.9856 17.4141C38.3909 17.2967 38.7162 17.1687 38.9616 17.0301C39.1322 17.1367 39.2762 17.2861 39.3936 17.4781C39.5109 17.6701 39.5696 17.8727 39.5696 18.0861C39.5696 18.4381 39.4362 18.7314 39.1696 18.9661C38.9136 19.1901 38.5562 19.3554 38.0976 19.4621C37.6389 19.5687 37.1109 19.6221 36.5136 19.6221C35.6816 19.6221 34.9296 19.4674 34.2576 19.1581C33.5962 18.8381 33.0682 18.3634 32.6736 17.7341C32.2896 17.1047 32.0976 16.3154 32.0976 15.3661C32.0976 14.6621 32.2096 14.0541 32.4336 13.5421C32.6682 13.0301 32.9776 12.6141 33.3616 12.2941C33.7456 11.9741 34.1722 11.7394 34.6416 11.5901C35.1216 11.4301 35.6122 11.3501 36.1136 11.3501C36.8709 11.3501 37.5322 11.4994 38.0976 11.7981C38.6629 12.0861 39.1056 12.4861 39.4256 12.9981C39.7456 13.4994 39.9056 14.0807 39.9056 14.7421C39.9056 15.1047 39.8042 15.3821 39.6016 15.5741C39.3989 15.7661 39.1162 15.8887 38.7536 15.9421L33.7456 16.6941Z" fill="#D60000"/>
<path d="M53.0259 14.6621V18.0541C53.0259 18.3101 52.9673 18.5127 52.8499 18.6621C52.7433 18.8007 52.5673 18.9341 52.3219 19.0621C52.0446 19.2114 51.6446 19.3394 51.1219 19.4461C50.6099 19.5527 50.0979 19.6061 49.5859 19.6061C48.5726 19.6061 47.6659 19.4301 46.8659 19.0781C46.0766 18.7154 45.4526 18.1607 44.9939 17.4141C44.5353 16.6567 44.3059 15.6914 44.3059 14.5181C44.3059 13.3874 44.5406 12.4434 45.0099 11.6861C45.4793 10.9287 46.1033 10.3581 46.8819 9.97406C47.6713 9.59006 48.5406 9.39806 49.4899 9.39806C50.1193 9.39806 50.6686 9.46739 51.1379 9.60606C51.6179 9.74472 51.9859 9.92606 52.2419 10.1501C52.5086 10.3741 52.6419 10.6194 52.6419 10.8861C52.6419 11.0781 52.5886 11.2541 52.4819 11.4141C52.3753 11.5741 52.2473 11.6967 52.0979 11.7821C51.8206 11.6007 51.4793 11.4301 51.0739 11.2701C50.6793 11.1101 50.1939 11.0301 49.6179 11.0301C48.9993 11.0301 48.4393 11.1687 47.9379 11.4461C47.4473 11.7127 47.0579 12.1074 46.7699 12.6301C46.4926 13.1421 46.3539 13.7714 46.3539 14.5181C46.3539 15.3074 46.4926 15.9581 46.7699 16.4701C47.0579 16.9821 47.4473 17.3661 47.9379 17.6221C48.4286 17.8674 48.9886 17.9901 49.6179 17.9901C49.9273 17.9901 50.2153 17.9634 50.4819 17.9101C50.7486 17.8461 50.9566 17.7767 51.1059 17.7021V15.4141H49.0099C48.9673 15.3287 48.9193 15.2167 48.8659 15.0781C48.8233 14.9394 48.8019 14.7954 48.8019 14.6461C48.8019 14.3687 48.8659 14.1661 48.9939 14.0381C49.1219 13.8994 49.2926 13.8301 49.5059 13.8301H52.1939C52.4499 13.8301 52.6526 13.9047 52.8019 14.0541C52.9513 14.2034 53.0259 14.4061 53.0259 14.6621ZM55.0318 16.4861V15.2061H56.9838V16.4541C56.9838 17.0194 57.1278 17.4301 57.4158 17.6861C57.7145 17.9314 58.1305 18.0541 58.6638 18.0541C59.0051 18.0541 59.2931 18.0221 59.5278 17.9581C59.7625 17.8834 59.9438 17.8087 60.0718 17.7341V15.2061H62.0078V17.8941C62.0078 18.1394 61.9651 18.3421 61.8798 18.5021C61.8051 18.6621 61.6558 18.8114 61.4318 18.9501C61.1331 19.1314 60.7438 19.2807 60.2638 19.3981C59.7945 19.5261 59.2558 19.5901 58.6478 19.5901C57.9118 19.5901 57.2718 19.4834 56.7278 19.2701C56.1838 19.0567 55.7625 18.7207 55.4638 18.2621C55.1758 17.7927 55.0318 17.2007 55.0318 16.4861ZM62.0078 15.9741H60.0718V11.8301C60.1571 11.7981 60.2798 11.7714 60.4398 11.7501C60.5998 11.7181 60.7705 11.7021 60.9518 11.7021C61.3251 11.7021 61.5918 11.7661 61.7518 11.8941C61.9225 12.0221 62.0078 12.2621 62.0078 12.6141V15.9741ZM56.9838 15.9741H55.0318V11.8301C55.1171 11.7981 55.2398 11.7714 55.3998 11.7501C55.5598 11.7181 55.7358 11.7021 55.9278 11.7021C56.2905 11.7021 56.5571 11.7661 56.7278 11.8941C56.8985 12.0221 56.9838 12.2621 56.9838 12.6141V15.9741ZM67.0387 18.1181C67.3694 18.1181 67.6627 18.0861 67.9187 18.0221C68.1747 17.9581 68.3614 17.8887 68.4787 17.8141V15.9741L66.8787 16.1181C66.4414 16.1607 66.1054 16.2621 65.8707 16.4221C65.6467 16.5714 65.5347 16.8007 65.5347 17.1101C65.5347 17.4194 65.6574 17.6647 65.9027 17.8461C66.148 18.0274 66.5267 18.1181 67.0387 18.1181ZM66.9747 11.5741C68.0094 11.5741 68.8307 11.7981 69.4387 12.2461C70.0574 12.6834 70.3667 13.3767 70.3667 14.3261V18.0221C70.3667 18.2781 70.308 18.4807 70.1907 18.6301C70.0734 18.7687 69.9187 18.8967 69.7267 19.0141C69.428 19.1847 69.0494 19.3234 68.5907 19.4301C68.132 19.5474 67.6147 19.6061 67.0387 19.6061C65.9827 19.6061 65.1507 19.4034 64.5427 18.9981C63.9347 18.5821 63.6307 17.9687 63.6307 17.1581C63.6307 16.4434 63.8547 15.8994 64.3027 15.5261C64.7614 15.1421 65.4227 14.9074 66.2867 14.8221L68.4787 14.5981V14.3101C68.4787 13.8727 68.3294 13.5581 68.0307 13.3661C67.732 13.1741 67.316 13.0781 66.7827 13.0781C66.3667 13.0781 65.9614 13.1314 65.5667 13.2381C65.172 13.3447 64.82 13.4727 64.5107 13.6221C64.404 13.5367 64.308 13.4247 64.2227 13.2861C64.148 13.1367 64.1107 12.9821 64.1107 12.8221C64.1107 12.4381 64.3187 12.1554 64.7347 11.9741C65.0334 11.8461 65.38 11.7501 65.7747 11.6861C66.1694 11.6114 66.5694 11.5741 66.9747 11.5741ZM74.3432 13.5901V15.7981H72.3912V13.4461C72.3912 13.1794 72.4552 12.9554 72.5832 12.7741C72.7112 12.5821 72.8925 12.4114 73.1272 12.2621C73.4472 12.0594 73.8525 11.8941 74.3432 11.7661C74.8339 11.6381 75.3619 11.5741 75.9272 11.5741C76.9192 11.5741 77.4152 11.8834 77.4152 12.5021C77.4152 12.6407 77.3939 12.7741 77.3512 12.9021C77.3085 13.0301 77.2552 13.1367 77.1912 13.2221C77.0845 13.2007 76.9512 13.1847 76.7912 13.1741C76.6312 13.1527 76.4659 13.1421 76.2952 13.1421C75.9005 13.1421 75.5325 13.1847 75.1912 13.2701C74.8605 13.3554 74.5779 13.4621 74.3432 13.5901ZM72.3912 15.1421L74.3432 15.2381V19.3341C74.2579 19.3661 74.1352 19.3927 73.9752 19.4141C73.8152 19.4461 73.6445 19.4621 73.4632 19.4621C73.1005 19.4621 72.8285 19.3981 72.6472 19.2701C72.4765 19.1421 72.3912 18.9074 72.3912 18.5661V15.1421ZM83.5089 17.7181V12.6781H85.4449V17.9261C85.4449 18.1501 85.3916 18.3421 85.2849 18.5021C85.1889 18.6514 85.0289 18.7954 84.8049 18.9341C84.5489 19.1047 84.2023 19.2541 83.7649 19.3821C83.3276 19.5207 82.8263 19.5901 82.2609 19.5901C81.4183 19.5901 80.6876 19.4514 80.0689 19.1741C79.4503 18.8861 78.9703 18.4487 78.6289 17.8621C78.2876 17.2647 78.1169 16.5127 78.1169 15.6061C78.1169 14.6781 78.2876 13.9207 78.6289 13.3341C78.9703 12.7367 79.4343 12.2941 80.0209 12.0061C80.6076 11.7181 81.2583 11.5741 81.9729 11.5741C82.3676 11.5741 82.7249 11.6221 83.0449 11.7181C83.3756 11.8141 83.6423 11.9314 83.8449 12.0701V13.7341C83.6743 13.5741 83.4503 13.4354 83.1729 13.3181C82.8956 13.1901 82.5756 13.1261 82.2129 13.1261C81.8076 13.1261 81.4449 13.2114 81.1249 13.3821C80.8049 13.5527 80.5489 13.8247 80.3569 14.1981C80.1756 14.5607 80.0849 15.0407 80.0849 15.6381C80.0849 16.4701 80.2769 17.0781 80.6609 17.4621C81.0556 17.8461 81.5836 18.0381 82.2449 18.0381C82.5329 18.0381 82.7783 18.0061 82.9809 17.9421C83.1836 17.8781 83.3596 17.8034 83.5089 17.7181ZM85.4449 13.0781L83.4929 13.0941V8.96606C83.5783 8.94472 83.7009 8.91806 83.8609 8.88606C84.0209 8.85406 84.1916 8.83806 84.3729 8.83806C84.7463 8.83806 85.0183 8.90739 85.1889 9.04606C85.3596 9.17406 85.4449 9.40339 85.4449 9.73406V13.0781Z" fill="black"/>
</svg>
