<svg width="42" height="37" viewBox="0 0 42 37" fill="none" xmlns="http://www.w3.org/2000/svg">
<path d="M29.8117 0C26.343 0 23.2172 1.50825 21 3.9229C18.7816 1.50825 15.6558 0 12.1871 0C5.45687 0 0 5.66169 0 12.6448C0 13.1483 0.0363469 13.6422 0.0908671 14.1299C0.272601 17.1003 1.36664 20.3644 3.69526 23.7145C5.49443 26.3027 8.22529 29.045 11.276 31.3892C14.403 33.793 17.8633 35.7793 20.9988 36.7488C24.1343 35.7793 27.5945 33.793 30.7216 31.3892C33.7711 29.0438 36.5031 26.3015 38.3023 23.7145C40.6309 20.3644 41.725 17.1003 41.9067 14.1299C41.9624 13.6422 41.9976 13.1483 41.9976 12.6448C41.9988 5.66169 36.5431 0 29.8117 0Z" fill="#FF0023"/>
<path d="M42 12.6435C42 13.1483 41.9637 13.6422 41.9079 14.1287C41.7262 17.0991 40.6322 20.3631 38.3047 23.7133C36.5044 26.3027 33.7735 29.0438 30.724 31.3892C27.597 33.793 24.1367 35.7769 21.0012 36.7476V3.92411C23.2172 1.50946 26.3418 0 29.8117 0C36.5419 0 41.9988 5.66047 41.9988 12.6435H42Z" fill="#D60000"/>
<path d="M34.418 2.14405C34.853 3.42418 34.9439 5.80849 32.9084 7.78268C29.5997 10.8902 26.784 12.2565 26.3078 12.6557C25.1593 13.6167 25.988 14.79 27.6406 14.0001C29.4131 13.1143 31.0281 12.3863 30.6004 13.4553C30.0334 14.915 27.4273 18.1099 24.9739 20.3741C23.9017 21.3836 24.0216 21.9794 24.2845 22.2208C24.7873 22.6843 26.4387 21.6238 27.8162 20.2479C28.8497 19.3293 31.4182 16.0447 31.7381 16.3419C31.8762 16.4766 31.6266 16.9778 31.6254 16.9778C30.6973 18.7979 28.1506 21.7064 26.0982 23.8286C25.0139 24.9692 25.1399 25.5831 25.4137 25.8113C25.9371 26.2493 27.5897 24.9898 29.012 23.4961C30.1158 22.5169 33.3252 17.5299 33.6959 17.9727C33.6959 17.9727 33.8656 18.0249 33.5954 18.5527C32.6067 20.4262 31.1626 22.3567 29.1998 24.8624C28.1421 26.1801 28.296 26.8038 28.5892 27.0065C29.149 27.396 30.7906 25.8853 32.1657 24.1635C33.2259 22.9938 35.5763 18.5576 35.9688 19.0175C36.0851 19.1485 35.7847 19.731 35.7835 19.731C34.8627 21.4855 34.8954 21.3314 33.2852 23.9354C32.402 25.2992 32.5874 25.8598 32.8709 26.009C33.4136 26.2966 35.0384 24.4037 36.2536 22.688C38.2672 19.8438 40.8478 12.8668 40.7703 7.10076C39.3358 3.7615 36.6182 1.30924 32.8697 0.402832C33.2125 0.536305 34.034 1.0071 34.4205 2.14526L34.418 2.14405Z" fill="white"/>
<path d="M12.9758 26.9822C14.6769 22.5569 16.8771 20.7781 17.1969 20.2466C17.5022 19.7406 17.4647 19.3402 17.2442 19.1788C16.7862 18.8415 16.1041 18.8621 15.3444 19.572C13.916 20.9079 13.1079 22.3215 13.0582 21.1712C12.9746 19.6072 14.0347 15.6212 15.3384 12.5452C15.8993 11.1826 15.5455 10.6887 15.2075 10.5783C14.5593 10.3635 13.4895 12.0113 12.8014 13.8326C12.238 15.0958 11.2481 19.1497 10.835 19.0102C10.6545 18.9434 10.6751 18.3841 10.6763 18.3853C10.7732 16.3431 11.8975 12.6435 12.8934 9.86241C13.412 8.376 13.0449 7.86759 12.702 7.77295C12.0453 7.58972 11.0579 9.41952 10.3758 11.367C9.77246 12.7151 8.96192 18.5491 8.44216 18.2991C8.44216 18.2991 8.22166 18.179 8.25195 17.5869C8.38158 15.4719 8.88559 13.2927 9.64403 10.1985C10.0657 8.56044 9.66826 8.05567 9.31812 7.99257C8.64813 7.8688 7.77338 9.92186 7.22939 12.0586C6.74355 13.562 6.42733 18.5746 5.88092 18.3173C5.72221 18.2457 5.75492 17.5905 5.75613 17.5917C5.87365 15.6127 5.90636 15.7668 6.30375 12.7297C6.54728 11.1231 6.14746 10.6875 5.82761 10.6693C5.21456 10.6305 4.59666 12.675 4.29014 14.756C3.88305 16.0471 3.91092 20.5742 4.73842 25.1075C6.39705 27.3547 8.64934 29.5339 11.1585 31.462C12.3846 32.4048 13.647 33.2445 15.067 33.9883C14.3158 33.401 11.5316 30.7388 12.9758 26.9834V26.9822Z" fill="white"/>
</svg>
